<svg xmlns="http://www.w3.org/2000/svg" version="1.1" xmlns:xlink="http://www.w3.org/1999/xlink" xmlns:svgjs="http://svgjs.dev/svgjs" width="1500" height="1500" viewBox="0 0 1500 1500"><rect width="1500" height="1500" fill="#ffffff"></rect><g transform="matrix(0.6666666666666666,0,0,0.6666666666666666,249.39393939393943,641.4941634330233)"><svg viewBox="0 0 396 86" data-background-color="#111111" preserveAspectRatio="xMidYMid meet" height="325" width="1500" xmlns="http://www.w3.org/2000/svg" xmlns:xlink="http://www.w3.org/1999/xlink"><g id="tight-bounds" transform="matrix(1,0,0,1,0.2400000000000091,0.06847051427686779)"><svg viewBox="0 0 395.52 85.86305897144625" height="85.86305897144625" width="395.52"><g><svg viewBox="0 0 557.2046230451474 120.96301933578066" height="85.86305897144625" width="395.52"><g><rect width="6.627011979144713" height="120.96301933578066" x="137.7094121677181" y="0" fill="#000000" opacity="1" stroke-width="0" stroke="transparent" fill-opacity="1" class="rect-qz-0" data-fill-palette-color="primary" rx="1%" id="qz-0" data-palette-color="#ff0000"></rect></g><g transform="matrix(1,0,0,1,161.68462304514742,0.3009030331735758)"><svg viewBox="0 0 395.52 120.3612132694335" height="120.3612132694335" width="395.52"><g id="textblocktransform"><svg viewBox="0 0 395.52 120.3612132694335" height="120.3612132694335" width="395.52" id="textblock"><g><svg viewBox="0 0 395.52 73.48565249447037" height="73.48565249447037" width="395.52"><g transform="matrix(1,0,0,1,0,0)"><svg width="395.52" viewBox="0.3 -37.5 203.42999999999998 37.8" height="73.48565249447037" data-palette-color="#ff0000"><path d="M6.65-34L6.65-34Q9.2-35.65 12.13-36.58 15.05-37.5 17.85-37.5L17.85-37.5Q18.2-37.5 18.63-37.48 19.05-37.45 19.85-37.4L19.85-37.4 20.3-6.65 30.8-37.25 34.3-37.25 20.4 0 12.8 0 12.8-34.15Q8.9-32.95 6.93-30.15 4.95-27.35 4.95-23.05L4.95-23.05Q4.95-22.1 5.08-21.4 5.2-20.7 5.5-20.05L5.5-20.05Q5.6-19.85 5.63-19.78 5.65-19.7 5.65-19.65L5.65-19.65Q2.85-19.65 1.58-20.83 0.3-22 0.3-24.5L0.3-24.5Q0.3-27 1.98-29.5 3.65-32 6.65-34ZM47-22.7L47-22.7 47-22.35 47.55-25 54.75-25 51.15-8Q51.05-7.55 51-7.18 50.95-6.8 50.95-6.4L50.95-6.4Q50.95-5.3 51.45-4.78 51.95-4.25 53-4.25L53-4.25Q54.3-4.25 55.35-5.48 56.4-6.7 57.05-8.95L57.05-8.95 59.15-8.95Q57.55-4.35 55-2.02 52.45 0.3 49.1 0.3L49.1 0.3Q46.95 0.3 45.67-0.9 44.4-2.1 44.2-4.3L44.2-4.3Q42.65-2 40.77-0.85 38.9 0.3 36.75 0.3L36.75 0.3Q33.65 0.3 31.87-1.8 30.1-3.9 30.1-7.75L30.1-7.75Q30.1-10.55 30.95-13.6 31.8-16.65 33.3-19.15L33.3-19.15Q35.15-22.1 37.6-23.68 40.05-25.25 42.95-25.25L42.95-25.25Q44.9-25.25 45.95-24.58 47-23.9 47-22.7ZM44.15-8.95L46.55-20.25Q46.55-21 46-21.58 45.45-22.15 44.5-22.15L44.5-22.15Q41.75-22.15 39.62-17.55 37.5-12.95 37.5-8.45L37.5-8.45Q37.5-6.5 38.05-5.53 38.6-4.55 40-4.55L40-4.55Q41.3-4.55 42.52-5.8 43.75-7.05 44.15-8.95L44.15-8.95ZM65.39-4.55L65.39-4.55Q66.7-4.55 67.72-5.68 68.75-6.8 69.4-8.95L69.4-8.95 72.8-25 80-25 76.4-8Q76.3-7.55 76.25-7.18 76.2-6.8 76.2-6.4L76.2-6.4Q76.2-5.4 76.67-4.98 77.15-4.55 78.25-4.55L78.25-4.55Q79.55-4.55 80.59-5.7 81.65-6.85 82.3-8.95L82.3-8.95 84.4-8.95Q82.8-4.35 80.25-2.02 77.7 0.3 74.34 0.3L74.34 0.3Q72.2 0.3 70.9-0.93 69.59-2.15 69.4-4.45L69.4-4.45Q67.95-2.05 66.12-0.88 64.3 0.3 62 0.3L62 0.3Q59.5 0.3 58.07-1.28 56.65-2.85 56.65-5.7L56.65-5.7Q56.65-6.35 56.75-7.18 56.84-8 57.05-8.95L57.05-8.95 60.45-25 67.65-25 64.05-8Q63.95-7.6 63.92-7.28 63.9-6.95 63.9-6.6L63.9-6.6Q63.9-5.6 64.27-5.08 64.64-4.55 65.39-4.55ZM81.89-5.7L81.89-5.7Q81.89-6.35 81.99-7.18 82.09-8 82.29-8.95L82.29-8.95 87.64-34 95.04-35 89.29-8Q89.19-7.55 89.14-7.18 89.09-6.8 89.09-6.4L89.09-6.4Q89.09-5.4 89.57-4.98 90.04-4.55 91.14-4.55L91.14-4.55Q92.54-4.55 93.79-5.78 95.04-7 95.64-8.95L95.64-8.95 97.74-8.95Q96.14-4.4 93.44-2.05 90.74 0.3 87.24 0.3L87.24 0.3Q84.74 0.3 83.32-1.28 81.89-2.85 81.89-5.7ZM96.99-23L97.39-25 99.04-25 100.54-31.9 107.94-32.9 106.24-25 109.24-25 108.84-23 105.84-23 102.64-8Q102.54-7.55 102.49-7.18 102.44-6.8 102.44-6.4L102.44-6.4Q102.44-5.4 102.92-4.98 103.39-4.55 104.49-4.55L104.49-4.55Q105.89-4.55 107.14-5.78 108.39-7 108.99-8.95L108.99-8.95 111.09-8.95Q109.49-4.4 106.79-2.05 104.09 0.3 100.59 0.3L100.59 0.3Q98.09 0.3 96.67-1.28 95.24-2.85 95.24-5.7L95.24-5.7Q95.24-6.35 95.34-7.18 95.44-8 95.64-8.95L95.64-8.95 98.64-23 96.99-23ZM111.89-31.2L112.49-33.5Q115.84-33.5 118.84-34.45 121.84-35.4 125.19-37.4L125.19-37.4 117.24 0 110.04 0 116.64-31.2 111.89-31.2ZM125.14-8.25L125.14-8.25Q125.14-11.55 126.74-13.48 128.34-15.4 131.19-15.4L131.19-15.4Q132.84-15.4 133.84-14.75 134.84-14.1 135.09-12.85L135.09-12.85Q132.89-12.7 131.78-11.33 130.69-9.95 130.69-7.45L130.69-7.45Q130.69-5.2 131.61-4.1 132.53-3 134.49-3L134.49-3Q137.49-3 139.46-5.45 141.44-7.9 141.44-11.45L141.44-11.45Q141.44-14.7 139.69-17.25 137.94-19.8 134.78-20.9L134.78-20.9Q138.53-21.95 140.94-24.78 143.34-27.6 143.34-30.65L143.34-30.65Q143.34-32.55 142.31-33.65 141.28-34.75 139.53-34.75L139.53-34.75Q137.74-34.75 136.66-33.68 135.59-32.6 135.59-30.85L135.59-30.85Q135.59-29.55 136.09-28.55 136.59-27.55 137.49-27.3L137.49-27.3Q136.59-26.45 135.61-26.03 134.64-25.6 133.69-25.6L133.69-25.6Q132.09-25.6 131.09-26.78 130.09-27.95 130.09-29.85L130.09-29.85Q130.09-33.15 133.03-35.3 135.99-37.45 140.44-37.45L140.44-37.45Q144.69-37.45 147.21-35.43 149.74-33.4 149.74-30.15L149.74-30.15Q149.74-27.45 147.91-24.95 146.09-22.45 142.89-20.85L142.89-20.85Q145.94-19.85 147.56-17.7 149.19-15.55 149.19-12.6L149.19-12.6Q149.19-10.1 148.01-7.65 146.84-5.2 144.74-3.35L144.74-3.35Q142.78-1.6 140.31-0.68 137.84 0.25 135.09 0.25L135.09 0.25Q130.44 0.25 127.79-1.93 125.14-4.1 125.14-8.25ZM151.58-8.25L151.58-8.25Q151.58-11.55 153.18-13.48 154.78-15.4 157.63-15.4L157.63-15.4Q159.28-15.4 160.28-14.75 161.28-14.1 161.53-12.85L161.53-12.85Q159.33-12.7 158.23-11.33 157.13-9.95 157.13-7.45L157.13-7.45Q157.13-5.2 158.06-4.1 158.98-3 160.93-3L160.93-3Q163.93-3 165.91-5.45 167.88-7.9 167.88-11.45L167.88-11.45Q167.88-14.7 166.13-17.25 164.38-19.8 161.23-20.9L161.23-20.9Q164.98-21.95 167.38-24.78 169.78-27.6 169.78-30.65L169.78-30.65Q169.78-32.55 168.76-33.65 167.73-34.75 165.98-34.75L165.98-34.75Q164.18-34.75 163.11-33.68 162.03-32.6 162.03-30.85L162.03-30.85Q162.03-29.55 162.53-28.55 163.03-27.55 163.93-27.3L163.93-27.3Q163.03-26.45 162.06-26.03 161.08-25.6 160.13-25.6L160.13-25.6Q158.53-25.6 157.53-26.78 156.53-27.95 156.53-29.85L156.53-29.85Q156.53-33.15 159.48-35.3 162.43-37.45 166.88-37.45L166.88-37.45Q171.13-37.45 173.66-35.43 176.18-33.4 176.18-30.15L176.18-30.15Q176.18-27.45 174.36-24.95 172.53-22.45 169.33-20.85L169.33-20.85Q172.38-19.85 174.01-17.7 175.63-15.55 175.63-12.6L175.63-12.6Q175.63-10.1 174.46-7.65 173.28-5.2 171.18-3.35L171.18-3.35Q169.23-1.6 166.76-0.68 164.28 0.25 161.53 0.25L161.53 0.25Q156.88 0.25 154.23-1.93 151.58-4.1 151.58-8.25ZM180.53-32.5L180.53-32.5Q180.53-35.1 182.18-36.3 183.83-37.5 187.33-37.5L187.33-37.5 203.73-37.5Q200.48-32.7 195.01-23.98 189.53-15.25 188.68-13.25L188.68-13.25Q187.88-11.45 187.48-9.83 187.08-8.2 187.08-6.8L187.08-6.8Q187.08-5.25 187.63-4.15 188.18-3.05 189.53-1.95L189.53-1.95Q189.18-0.95 188.06-0.48 186.93 0 184.93 0L184.93 0Q182.18 0 180.98-1.5 179.78-3 179.78-6.25L179.78-6.25Q179.78-9.35 181.21-12.85 182.63-16.35 185.63-20.6L185.63-20.6Q187.18-22.8 189.31-25.45 191.43-28.1 195.53-32.85L195.53-32.85Q194.48-33 193.38-33.08 192.28-33.15 191.28-33.15L191.28-33.15Q187.78-33.15 185.16-32.25 182.53-31.35 180.93-29.6L180.93-29.6Q180.73-30.45 180.63-31.18 180.53-31.9 180.53-32.5Z" opacity="1" transform="matrix(1,0,0,1,0,0)" fill="#000000" class="wordmark-text-0" data-fill-palette-color="primary" id="text-0"></path></svg></g></svg></g><g transform="matrix(1,0,0,1,0,90.83385139275497)"><svg viewBox="0 0 232.20979200000002 29.52736187667854" height="29.52736187667854" width="232.20979200000002"><g transform="matrix(1,0,0,1,0,0)"><svg width="232.20979200000002" viewBox="3.5 -35 364.86 46.4" height="29.52736187667854" data-palette-color="#ff0000"><path d="M15.65-26.3L19.75-10.85 20.05-10.85 24.15-26.3Q25.45-31.3 28.15-33.15 30.85-35 36.3-35L36.3-35 36.3 0 31.6 0 31.6-29.7Q30.3-29.15 29.63-28.15 28.95-27.15 28.35-25.15L28.35-25.15 22.1-3.7 17.7-3.7 11.4-25.15Q10.8-27.2 10.15-28.18 9.5-29.15 8.2-29.7L8.2-29.7 8.2 0 3.5 0 3.5-35Q8.95-35 11.63-33.13 14.3-31.25 15.65-26.3L15.65-26.3ZM56.15-14.1L56.15-14.1 56.15-9.6Q54.25-11.05 51.5-11.05L51.5-11.05Q49.15-11.05 47.85-10.13 46.55-9.2 46.55-7.5L46.55-7.5Q46.55-4.2 51.45-4.2L51.45-4.2 58.05-4.2 58.05-13.75Q58.05-19.8 52.15-19.8L52.15-19.8 44.15-19.8 44.15-24 52.4-24Q57.25-24 59.85-21.6 62.45-19.2 62.45-14.7L62.45-14.7 62.45 0 51.3 0Q47.05 0 44.55-1.9 42.05-3.8 42.05-7.45 42.05-11.1 44.7-13 47.35-14.9 51.35-14.9L51.35-14.9Q53.6-14.9 56.15-14.1ZM67.95-9.5L67.95-9.5 67.95-35 72.45-35 72.45-9.5Q72.45-7.7 72.87-6.58 73.3-5.45 74.2-4.98 75.1-4.5 75.95-4.35 76.8-4.2 78.2-4.2L78.2-4.2 78.2 0Q72.6 0 70.27-2.15 67.95-4.3 67.95-9.5ZM102.49 0.5L102.49 0.5Q98.79-2.35 97.54-5.25 96.29-8.15 95.69-13.8L95.69-13.8 95.19-13.8Q94.59-8.15 93.34-5.25 92.09-2.35 88.39 0.5L88.39 0.5Q84.94-1.2 82.92-5.65 80.89-10.1 80.54-16.65L80.54-16.65 80.19-24 84.64-24 85.04-16.85Q85.49-8.65 88.29-4.95L88.29-4.95Q89.04-5.8 89.69-6.85 90.34-7.9 90.79-9.18 91.24-10.45 91.57-11.43 91.89-12.4 92.17-13.93 92.44-15.45 92.54-16.15 92.64-16.85 92.82-18.4 92.99-19.95 93.04-20.15L93.04-20.15 97.84-20.15Q97.89-19.95 98.07-18.4 98.24-16.85 98.34-16.15 98.44-15.45 98.72-13.93 98.99-12.4 99.32-11.43 99.64-10.45 100.09-9.18 100.54-7.9 101.19-6.85 101.84-5.8 102.59-4.95L102.59-4.95Q105.39-8.65 105.84-16.85L105.84-16.85 106.24-24 110.69-24 110.34-16.65Q109.99-10.1 107.97-5.65 105.94-1.2 102.49 0.5ZM128.79-14.1L128.79-14.1 128.79-9.6Q126.89-11.05 124.14-11.05L124.14-11.05Q121.79-11.05 120.49-10.13 119.19-9.2 119.19-7.5L119.19-7.5Q119.19-4.2 124.09-4.2L124.09-4.2 130.69-4.2 130.69-13.75Q130.69-19.8 124.79-19.8L124.79-19.8 116.79-19.8 116.79-24 125.04-24Q129.89-24 132.49-21.6 135.09-19.2 135.09-14.7L135.09-14.7 135.09 0 123.94 0Q119.69 0 117.19-1.9 114.69-3.8 114.69-7.45 114.69-11.1 117.34-13 119.99-14.9 123.99-14.9L123.99-14.9Q126.24-14.9 128.79-14.1ZM144.24 0L139.84 0 139.84-13.65Q139.84-19.4 141.99-21.6L141.99-21.6Q143.04-22.7 144.54-23.25 146.04-23.8 147.16-23.9 148.29-24 150.24-24L150.24-24 154.64-24 154.64-19.8 149.34-19.8Q148.34-19.8 147.79-19.75 147.24-19.7 146.49-19.4 145.74-19.1 145.19-18.45L145.19-18.45Q144.24-17.25 144.24-13.65L144.24-13.65 144.24 0ZM169.64-24.5L169.64-24.5Q178.14-24.15 178.14-17.45L178.14-17.45Q178.14-9.1 167.19-9.1L167.19-9.1 165.14-9.1 165.14-12.95 167.54-12.95Q170.89-12.95 172.19-13.98 173.49-15 173.49-17.4L173.49-17.4Q173.49-18.95 172.34-19.73 171.19-20.5 169.39-20.5L169.39-20.5Q165.84-20.5 163.81-18 161.79-15.5 161.79-12L161.79-12Q161.79-8.3 163.96-6 166.14-3.7 169.64-3.7L169.64-3.7Q172.79-3.7 174.79-5.25L174.79-5.25 177.79-2.3Q174.34 0.5 169.64 0.5L169.64 0.5Q163.94 0.5 160.54-2.85 157.14-6.2 157.14-11.5L157.14-11.5Q157.14-17.4 160.49-21.05 163.84-24.7 169.64-24.5ZM199.23-12.8L199.23 0 194.78 0 194.78-22Q194.78-27.4 198.26-31.2 201.73-35 207.23-35L207.23-35 218.68-35 218.68 0 213.98 0 213.98-30.6 207.23-30.6Q203.58-30.6 201.41-28.45 199.23-26.3 199.23-21.6L199.23-21.6 199.23-17.35Q202.03-20.3 207.23-20.3L207.23-20.3 211.78-20.3 211.78-15.9 207.23-15.9Q204.33-15.9 202.51-15.2 200.68-14.5 199.23-12.8L199.23-12.8ZM225.43 0L225.43-24 234.08-24Q239.63-24 242.03-22.35L242.03-22.35Q244.18-20.9 244.75-18.88 245.33-16.85 245.33-13.55L245.33-13.55 245.33 0 240.93 0 240.93-13.5Q240.93-14.4 240.88-15.03 240.83-15.65 240.53-16.63 240.23-17.6 239.68-18.23 239.13-18.85 238.08-19.33 237.03-19.8 235.53-19.8L235.53-19.8 229.83-19.8 229.83 0 225.43 0ZM264.68-14.1L264.68-14.1 264.68-9.6Q262.78-11.05 260.03-11.05L260.03-11.05Q257.68-11.05 256.38-10.13 255.08-9.2 255.08-7.5L255.08-7.5Q255.08-4.2 259.98-4.2L259.98-4.2 266.58-4.2 266.58-13.75Q266.58-19.8 260.68-19.8L260.68-19.8 252.68-19.8 252.68-24 260.93-24Q265.78-24 268.38-21.6 270.98-19.2 270.98-14.7L270.98-14.7 270.98 0 259.83 0Q255.58 0 253.08-1.9 250.58-3.8 250.58-7.45 250.58-11.1 253.23-13 255.88-14.9 259.88-14.9L259.88-14.9Q262.13-14.9 264.68-14.1ZM276.47-9.5L276.47-9.5 276.47-35 280.97-35 280.97-9.5Q280.97-7.7 281.4-6.58 281.82-5.45 282.72-4.98 283.62-4.5 284.47-4.35 285.32-4.2 286.72-4.2L286.72-4.2 286.72 0Q281.12 0 278.8-2.15 276.47-4.3 276.47-9.5ZM289.22-11.65L289.22-24 293.62-24 293.62-11.45Q293.62-7.4 294.87-5.8 296.12-4.2 299.47-4.2L299.47-4.2 304.72-4.2 304.72-24 309.12-24 309.12-1.2Q309.12 5.05 305.85 8.22 302.57 11.4 295.57 11.4L295.57 11.4 291.97 11.4 291.97 7.2 295.12 7.2Q304.27 7.2 304.72 0L304.72 0 300.52 0Q293.97 0 291.6-2.3 289.22-4.6 289.22-11.65L289.22-11.65ZM322.67-24L331.52-24 331.52-19.8 322.67-19.8Q321.22-19.8 320.17-19.25 319.12-18.7 319.12-17.7L319.12-17.7Q319.12-17.1 319.37-16.63 319.62-16.15 319.94-15.85 320.27-15.55 320.94-15.23 321.62-14.9 321.99-14.78 322.37-14.65 325.17-13.75 327.97-12.85 329.32-12.25 330.67-11.65 331.39-10.63 332.12-9.6 332.32-8.63 332.52-7.65 332.52-6.7L332.52-6.7Q332.52 0 323.32 0L323.32 0 314.67 0 314.67-4.2 323.32-4.2Q328.02-4.2 328.02-6.7L328.02-6.7Q328.02-7.9 326.64-8.7 325.27-9.5 323.29-10.05 321.32-10.6 319.34-11.33 317.37-12.05 315.99-13.68 314.62-15.3 314.62-17.7L314.62-17.7Q314.62-20.75 316.97-22.38 319.32-24 322.67-24L322.67-24ZM344.01-24L344.01 0 339.62 0 339.62-19.8 335.51-19.8 337.51-24 344.01-24ZM339.41-29L339.41-29Q338.76-29.85 338.76-30.85 338.76-31.85 339.41-32.68 340.06-33.5 341.41-33.5 342.76-33.5 343.41-32.68 344.06-31.85 344.06-30.85 344.06-29.85 343.41-29.03 342.76-28.2 341.41-28.2 340.06-28.2 339.41-29ZM358.51-24L367.36-24 367.36-19.8 358.51-19.8Q357.06-19.8 356.01-19.25 354.96-18.7 354.96-17.7L354.96-17.7Q354.96-17.1 355.21-16.63 355.46-16.15 355.79-15.85 356.11-15.55 356.79-15.23 357.46-14.9 357.84-14.78 358.21-14.65 361.01-13.75 363.81-12.85 365.16-12.25 366.51-11.65 367.24-10.63 367.96-9.6 368.16-8.63 368.36-7.65 368.36-6.7L368.36-6.7Q368.36 0 359.16 0L359.16 0 350.51 0 350.51-4.2 359.16-4.2Q363.86-4.2 363.86-6.7L363.86-6.7Q363.86-7.9 362.49-8.7 361.11-9.5 359.14-10.05 357.16-10.6 355.19-11.33 353.21-12.05 351.84-13.68 350.46-15.3 350.46-17.7L350.46-17.7Q350.46-20.75 352.81-22.38 355.16-24 358.51-24L358.51-24Z" opacity="1" transform="matrix(1,0,0,1,0,0)" fill="#000000" class="slogan-text-1" data-fill-palette-color="secondary" id="text-1"></path></svg></g></svg></g></svg></g></svg></g><g transform="matrix(1,0,0,1,0,0.3009030331735687)"><svg viewBox="0 0 120.36121326943352 120.36121326943352" height="120.36121326943352" width="120.36121326943352"><g><svg xmlns="http://www.w3.org/2000/svg" xmlns:xlink="http://www.w3.org/1999/xlink" version="1.1" x="0" y="0" viewBox="5 5 90 90" enable-background="new 0 0 100 100" xml:space="preserve" height="120.36121326943352" width="120.36121326943352" class="icon-icon-0" data-fill-palette-color="accent" id="icon-0"><path d="M63.639 65C66.396 60.663 68 55.521 68 50s-1.604-10.663-4.361-15H63v30H63.639z" fill="#000000" data-fill-palette-color="accent"></path><path d="M36 35h-1v-1-8-1h1 16.605c-3.789-1.915-8.069-3-12.605-3-15.464 0-28 12.536-28 28 0 15.465 12.536 28 28 28 4.536 0 8.816-1.085 12.606-3H36h-1v-1-8-1h1 18V35H36zM51.031 50.5h-1.055c-0.116 2.381-1.06 4.539-2.556 6.197l0.738 0.737c0.195 0.195 0.195 0.512 0 0.707-0.098 0.098-0.226 0.146-0.354 0.146s-0.256-0.049-0.354-0.146l-0.737-0.736c-1.656 1.504-3.815 2.456-6.198 2.577v1.033c0 0.276-0.224 0.5-0.5 0.5s-0.5-0.224-0.5-0.5v-1.031c-2.388-0.115-4.552-1.062-6.213-2.564l-0.723 0.723c-0.098 0.098-0.226 0.146-0.354 0.146s-0.256-0.049-0.354-0.146c-0.195-0.195-0.195-0.512 0-0.707l0.723-0.723c-1.504-1.66-2.454-3.824-2.57-6.213H29c-0.276 0-0.5-0.224-0.5-0.5s0.224-0.5 0.5-0.5h1.026c0.12-2.386 1.072-4.547 2.578-6.205l-0.731-0.731c-0.195-0.195-0.195-0.512 0-0.707s0.512-0.195 0.707 0l0.733 0.733c1.66-1.498 3.82-2.442 6.204-2.557v-1.048c0-0.276 0.224-0.5 0.5-0.5s0.5 0.224 0.5 0.5v1.049c2.379 0.122 4.534 1.07 6.189 2.569l0.746-0.746c0.195-0.195 0.512-0.195 0.707 0s0.195 0.512 0 0.707l-0.747 0.747c1.498 1.656 2.444 3.811 2.564 6.189h1.056c0.276 0 0.5 0.224 0.5 0.5S51.308 50.5 51.031 50.5z" fill="#000000" data-fill-palette-color="accent"></path><path d="M64.227 35c2.706 4.359 4.273 9.5 4.273 15.008 0 5.501-1.562 10.636-4.263 14.992h1.745c2.551-4.412 4.019-9.529 4.019-14.992 0-5.47-1.471-10.593-4.028-15.008H64.227z" fill="#000000" data-fill-palette-color="accent"></path><path d="M10 50.008c0 16.569 13.432 30 30 30 6.137 0 11.841-1.847 16.594-5.009h-2.891c-4.066 2.234-8.736 3.508-13.704 3.508-15.74 0-28.5-12.759-28.5-28.5 0-15.74 12.76-28.5 28.5-28.5 4.957 0 9.616 1.267 13.676 3.492h2.893C51.821 21.848 46.126 20.008 40 20.008 23.432 20.008 10 33.439 10 50.008z" fill="#000000" data-fill-palette-color="accent"></path><path d="M75.001 50.008c0-5.372-1.214-10.459-3.376-15.008h-3.361c2.383 4.477 3.737 9.583 3.737 15.008 0 5.418-1.352 10.519-3.729 14.992h3.359C73.79 60.455 75.001 55.374 75.001 50.008z" fill="#000000" data-fill-palette-color="accent"></path><path d="M40 82.009c-17.673 0-32-14.327-32-32s14.327-32 32-32c7.549 0 14.482 2.62 19.955 6.992h4.522C58.166 18.822 49.531 15.008 40 15.008c-19.33 0-35 15.67-35 35 0 19.331 15.67 35 35 35 9.539 0 18.182-3.82 24.495-10.009h-4.52C54.5 79.382 47.559 82.009 40 82.009z" fill="#000000" data-fill-palette-color="accent"></path><path d="M46.976 49.5c-0.112-1.551-0.727-2.961-1.686-4.068L41.222 49.5H46.976z" fill="#000000" data-fill-palette-color="accent"></path><path d="M39.516 48.793v-5.761c-1.556 0.107-2.971 0.719-4.083 1.678L39.516 48.793z" fill="#000000" data-fill-palette-color="accent"></path><path d="M39.516 56.984v-5.778l-4.092 4.092C36.537 56.262 37.955 56.877 39.516 56.984z" fill="#000000" data-fill-palette-color="accent"></path><path d="M34.725 45.417c-0.967 1.109-1.587 2.525-1.7 4.083h5.783L34.725 45.417z" fill="#000000" data-fill-palette-color="accent"></path><path d="M33.025 50.5c0.109 1.562 0.726 2.979 1.692 4.092l4.091-4.092H33.025z" fill="#000000" data-fill-palette-color="accent"></path><path d="M40.516 56.982c1.556-0.113 2.969-0.733 4.077-1.698l-4.077-4.077V56.982z" fill="#000000" data-fill-palette-color="accent"></path><path d="M40.516 43.034v5.758l4.067-4.067C43.477 43.764 42.067 43.147 40.516 43.034z" fill="#000000" data-fill-palette-color="accent"></path><path d="M45.299 54.575c0.958-1.109 1.569-2.521 1.677-4.075h-5.753L45.299 54.575z" fill="#000000" data-fill-palette-color="accent"></path><polygon points="76,5 76,16 86,16 86,35 77,35 77,65 86,65 86,84 76,84 76,95 95,95 95,5 " fill="#000000" data-fill-palette-color="accent"></polygon><path d="M63 29v5h22V17h-9v8 1h-1H36v8h18v-5H63zM80.5 19c0.828 0 1.5 0.671 1.5 1.5S81.328 22 80.5 22 79 21.329 79 20.5 79.672 19 80.5 19zM80.5 24c0.828 0 1.5 0.671 1.5 1.5S81.328 27 80.5 27 79 26.329 79 25.5 79.672 24 80.5 24zM80.5 29c0.828 0 1.5 0.671 1.5 1.5S81.328 32 80.5 32 79 31.329 79 30.5 79.672 29 80.5 29z" fill="#000000" data-fill-palette-color="accent"></path><path d="M85 83V66H63v5h-9v-5H36v8h40v9H85zM80.5 68c0.828 0 1.5 0.672 1.5 1.5S81.328 71 80.5 71 79 70.328 79 69.5 79.672 68 80.5 68zM80.5 73c0.828 0 1.5 0.672 1.5 1.5S81.328 76 80.5 76 79 75.328 79 74.5 79.672 73 80.5 73zM80.5 78c0.828 0 1.5 0.672 1.5 1.5S81.328 81 80.5 81 79 80.328 79 79.5 79.672 78 80.5 78z" fill="#000000" data-fill-palette-color="accent"></path><rect x="55" y="30" width="7" height="40" fill="#000000" data-fill-palette-color="accent"></rect></svg></g></svg></g></svg></g><defs></defs></svg><rect width="395.52" height="85.86305897144625" fill="none" stroke="none" visibility="hidden"></rect></g></svg></g></svg>