<?xml version="1.0" encoding="UTF-8" standalone="no"?>
<svg
   version="1.1"
   width="1500"
   height="325"
   viewBox="0 0 1500 325"
   id="svg25"
   sodipodi:docname="logo-no-background.svg"
   inkscape:version="1.3.2 (091e20e, 2023-11-25, custom)"
   xmlns:inkscape="http://www.inkscape.org/namespaces/inkscape"
   xmlns:sodipodi="http://sodipodi.sourceforge.net/DTD/sodipodi-0.dtd"
   xmlns="http://www.w3.org/2000/svg"
   xmlns:svg="http://www.w3.org/2000/svg">
  <defs
     id="defs25" />
  <sodipodi:namedview
     id="namedview25"
     pagecolor="#505050"
     bordercolor="#eeeeee"
     borderopacity="1"
     inkscape:showpageshadow="0"
     inkscape:pageopacity="0"
     inkscape:pagecheckerboard="0"
     inkscape:deskcolor="#505050"
     inkscape:zoom="0.938095"
     inkscape:cx="937.00532"
     inkscape:cy="36.243664"
     inkscape:window-width="2560"
     inkscape:window-height="1494"
     inkscape:window-x="-11"
     inkscape:window-y="-11"
     inkscape:window-maximized="1"
     inkscape:current-layer="svg25" />
  <g
     transform="matrix(1,0,0,1,-0.9090909090909918,-0.25875485046489644)"
     id="g24">
    <svg
       viewBox="0 0 396 86"
       data-background-color="#111111"
       preserveAspectRatio="xMidYMid meet"
       height="325"
       width="1500"
       version="1.1"
       id="svg24">
      <g
         id="tight-bounds"
         transform="matrix(1,0,0,1,0.2400000000000091,0.06847051427686779)">
        <svg
           viewBox="0 0 395.52 85.86305897144625"
           height="85.86305897144625"
           width="395.52"
           version="1.1"
           id="svg23">
          <g
             id="g23">
            <svg
               viewBox="0 0 557.2046230451474 120.96301933578066"
               height="85.86305897144625"
               width="395.52"
               version="1.1"
               id="svg22">
              <g
                 id="g1">
                <rect
                   width="6.627011979144713"
                   height="120.96301933578066"
                   x="137.7094121677181"
                   y="0"
                   fill="#ff0000"
                   opacity="1"
                   stroke-width="0"
                   stroke="transparent"
                   fill-opacity="1"
                   class="rect-qz-0"
                   data-fill-palette-color="primary"
                   rx="1%"
                   id="qz-0"
                   data-palette-color="#ff0000" />
              </g>
              <g
                 transform="matrix(1,0,0,1,161.68462304514742,0.3009030331735758)"
                 id="g6">
                <svg
                   viewBox="0 0 395.52 120.3612132694335"
                   height="120.3612132694335"
                   width="395.52"
                   version="1.1"
                   id="svg5">
                  <g
                     id="textblocktransform">
                    <svg
                       viewBox="0 0 395.52 120.3612132694335"
                       height="120.3612132694335"
                       width="395.52"
                       id="textblock"
                       version="1.1">
                      <g
                         id="g3">
                        <svg
                           viewBox="0 0 395.52 73.48565249447037"
                           height="73.48565249447037"
                           width="395.52"
                           version="1.1"
                           id="svg2">
                          <g
                             transform="matrix(1,0,0,1,0,0)"
                             id="g2">
                            <svg
                               width="395.52"
                               viewBox="0.3 -37.5 203.42999999999998 37.8"
                               height="73.48565249447037"
                               data-palette-color="#ff0000"
                               version="1.1"
                               id="svg1">
                              <path
                                 d="M6.65-34L6.65-34Q9.2-35.65 12.13-36.58 15.05-37.5 17.85-37.5L17.85-37.5Q18.2-37.5 18.63-37.48 19.05-37.45 19.85-37.4L19.85-37.4 20.3-6.65 30.8-37.25 34.3-37.25 20.4 0 12.8 0 12.8-34.15Q8.9-32.95 6.93-30.15 4.95-27.35 4.95-23.05L4.95-23.05Q4.95-22.1 5.08-21.4 5.2-20.7 5.5-20.05L5.5-20.05Q5.6-19.85 5.63-19.78 5.65-19.7 5.65-19.65L5.65-19.65Q2.85-19.65 1.58-20.83 0.3-22 0.3-24.5L0.3-24.5Q0.3-27 1.98-29.5 3.65-32 6.65-34ZM47-22.7L47-22.7 47-22.35 47.55-25 54.75-25 51.15-8Q51.05-7.55 51-7.18 50.95-6.8 50.95-6.4L50.95-6.4Q50.95-5.3 51.45-4.78 51.95-4.25 53-4.25L53-4.25Q54.3-4.25 55.35-5.48 56.4-6.7 57.05-8.95L57.05-8.95 59.15-8.95Q57.55-4.35 55-2.02 52.45 0.3 49.1 0.3L49.1 0.3Q46.95 0.3 45.67-0.9 44.4-2.1 44.2-4.3L44.2-4.3Q42.65-2 40.77-0.85 38.9 0.3 36.75 0.3L36.75 0.3Q33.65 0.3 31.87-1.8 30.1-3.9 30.1-7.75L30.1-7.75Q30.1-10.55 30.95-13.6 31.8-16.65 33.3-19.15L33.3-19.15Q35.15-22.1 37.6-23.68 40.05-25.25 42.95-25.25L42.95-25.25Q44.9-25.25 45.95-24.58 47-23.9 47-22.7ZM44.15-8.95L46.55-20.25Q46.55-21 46-21.58 45.45-22.15 44.5-22.15L44.5-22.15Q41.75-22.15 39.62-17.55 37.5-12.95 37.5-8.45L37.5-8.45Q37.5-6.5 38.05-5.53 38.6-4.55 40-4.55L40-4.55Q41.3-4.55 42.52-5.8 43.75-7.05 44.15-8.95L44.15-8.95ZM65.39-4.55L65.39-4.55Q66.7-4.55 67.72-5.68 68.75-6.8 69.4-8.95L69.4-8.95 72.8-25 80-25 76.4-8Q76.3-7.55 76.25-7.18 76.2-6.8 76.2-6.4L76.2-6.4Q76.2-5.4 76.67-4.98 77.15-4.55 78.25-4.55L78.25-4.55Q79.55-4.55 80.59-5.7 81.65-6.85 82.3-8.95L82.3-8.95 84.4-8.95Q82.8-4.35 80.25-2.02 77.7 0.3 74.34 0.3L74.34 0.3Q72.2 0.3 70.9-0.93 69.59-2.15 69.4-4.45L69.4-4.45Q67.95-2.05 66.12-0.88 64.3 0.3 62 0.3L62 0.3Q59.5 0.3 58.07-1.28 56.65-2.85 56.65-5.7L56.65-5.7Q56.65-6.35 56.75-7.18 56.84-8 57.05-8.95L57.05-8.95 60.45-25 67.65-25 64.05-8Q63.95-7.6 63.92-7.28 63.9-6.95 63.9-6.6L63.9-6.6Q63.9-5.6 64.27-5.08 64.64-4.55 65.39-4.55ZM81.89-5.7L81.89-5.7Q81.89-6.35 81.99-7.18 82.09-8 82.29-8.95L82.29-8.95 87.64-34 95.04-35 89.29-8Q89.19-7.55 89.14-7.18 89.09-6.8 89.09-6.4L89.09-6.4Q89.09-5.4 89.57-4.98 90.04-4.55 91.14-4.55L91.14-4.55Q92.54-4.55 93.79-5.78 95.04-7 95.64-8.95L95.64-8.95 97.74-8.95Q96.14-4.4 93.44-2.05 90.74 0.3 87.24 0.3L87.24 0.3Q84.74 0.3 83.32-1.28 81.89-2.85 81.89-5.7ZM96.99-23L97.39-25 99.04-25 100.54-31.9 107.94-32.9 106.24-25 109.24-25 108.84-23 105.84-23 102.64-8Q102.54-7.55 102.49-7.18 102.44-6.8 102.44-6.4L102.44-6.4Q102.44-5.4 102.92-4.98 103.39-4.55 104.49-4.55L104.49-4.55Q105.89-4.55 107.14-5.78 108.39-7 108.99-8.95L108.99-8.95 111.09-8.95Q109.49-4.4 106.79-2.05 104.09 0.3 100.59 0.3L100.59 0.3Q98.09 0.3 96.67-1.28 95.24-2.85 95.24-5.7L95.24-5.7Q95.24-6.35 95.34-7.18 95.44-8 95.64-8.95L95.64-8.95 98.64-23 96.99-23ZM111.89-31.2L112.49-33.5Q115.84-33.5 118.84-34.45 121.84-35.4 125.19-37.4L125.19-37.4 117.24 0 110.04 0 116.64-31.2 111.89-31.2ZM125.14-8.25L125.14-8.25Q125.14-11.55 126.74-13.48 128.34-15.4 131.19-15.4L131.19-15.4Q132.84-15.4 133.84-14.75 134.84-14.1 135.09-12.85L135.09-12.85Q132.89-12.7 131.78-11.33 130.69-9.95 130.69-7.45L130.69-7.45Q130.69-5.2 131.61-4.1 132.53-3 134.49-3L134.49-3Q137.49-3 139.46-5.45 141.44-7.9 141.44-11.45L141.44-11.45Q141.44-14.7 139.69-17.25 137.94-19.8 134.78-20.9L134.78-20.9Q138.53-21.95 140.94-24.78 143.34-27.6 143.34-30.65L143.34-30.65Q143.34-32.55 142.31-33.65 141.28-34.75 139.53-34.75L139.53-34.75Q137.74-34.75 136.66-33.68 135.59-32.6 135.59-30.85L135.59-30.85Q135.59-29.55 136.09-28.55 136.59-27.55 137.49-27.3L137.49-27.3Q136.59-26.45 135.61-26.03 134.64-25.6 133.69-25.6L133.69-25.6Q132.09-25.6 131.09-26.78 130.09-27.95 130.09-29.85L130.09-29.85Q130.09-33.15 133.03-35.3 135.99-37.45 140.44-37.45L140.44-37.45Q144.69-37.45 147.21-35.43 149.74-33.4 149.74-30.15L149.74-30.15Q149.74-27.45 147.91-24.95 146.09-22.45 142.89-20.85L142.89-20.85Q145.94-19.85 147.56-17.7 149.19-15.55 149.19-12.6L149.19-12.6Q149.19-10.1 148.01-7.65 146.84-5.2 144.74-3.35L144.74-3.35Q142.78-1.6 140.31-0.68 137.84 0.25 135.09 0.25L135.09 0.25Q130.44 0.25 127.79-1.93 125.14-4.1 125.14-8.25ZM151.58-8.25L151.58-8.25Q151.58-11.55 153.18-13.48 154.78-15.4 157.63-15.4L157.63-15.4Q159.28-15.4 160.28-14.75 161.28-14.1 161.53-12.85L161.53-12.85Q159.33-12.7 158.23-11.33 157.13-9.95 157.13-7.45L157.13-7.45Q157.13-5.2 158.06-4.1 158.98-3 160.93-3L160.93-3Q163.93-3 165.91-5.45 167.88-7.9 167.88-11.45L167.88-11.45Q167.88-14.7 166.13-17.25 164.38-19.8 161.23-20.9L161.23-20.9Q164.98-21.95 167.38-24.78 169.78-27.6 169.78-30.65L169.78-30.65Q169.78-32.55 168.76-33.65 167.73-34.75 165.98-34.75L165.98-34.75Q164.18-34.75 163.11-33.68 162.03-32.6 162.03-30.85L162.03-30.85Q162.03-29.55 162.53-28.55 163.03-27.55 163.93-27.3L163.93-27.3Q163.03-26.45 162.06-26.03 161.08-25.6 160.13-25.6L160.13-25.6Q158.53-25.6 157.53-26.78 156.53-27.95 156.53-29.85L156.53-29.85Q156.53-33.15 159.48-35.3 162.43-37.45 166.88-37.45L166.88-37.45Q171.13-37.45 173.66-35.43 176.18-33.4 176.18-30.15L176.18-30.15Q176.18-27.45 174.36-24.95 172.53-22.45 169.33-20.85L169.33-20.85Q172.38-19.85 174.01-17.7 175.63-15.55 175.63-12.6L175.63-12.6Q175.63-10.1 174.46-7.65 173.28-5.2 171.18-3.35L171.18-3.35Q169.23-1.6 166.76-0.68 164.28 0.25 161.53 0.25L161.53 0.25Q156.88 0.25 154.23-1.93 151.58-4.1 151.58-8.25ZM180.53-32.5L180.53-32.5Q180.53-35.1 182.18-36.3 183.83-37.5 187.33-37.5L187.33-37.5 203.73-37.5Q200.48-32.7 195.01-23.98 189.53-15.25 188.68-13.25L188.68-13.25Q187.88-11.45 187.48-9.83 187.08-8.2 187.08-6.8L187.08-6.8Q187.08-5.25 187.63-4.15 188.18-3.05 189.53-1.95L189.53-1.95Q189.18-0.95 188.06-0.48 186.93 0 184.93 0L184.93 0Q182.18 0 180.98-1.5 179.78-3 179.78-6.25L179.78-6.25Q179.78-9.35 181.21-12.85 182.63-16.35 185.63-20.6L185.63-20.6Q187.18-22.8 189.31-25.45 191.43-28.1 195.53-32.85L195.53-32.85Q194.48-33 193.38-33.08 192.28-33.15 191.28-33.15L191.28-33.15Q187.78-33.15 185.16-32.25 182.53-31.35 180.93-29.6L180.93-29.6Q180.73-30.45 180.63-31.18 180.53-31.9 180.53-32.5Z"
                                 opacity="1"
                                 transform="matrix(1,0,0,1,0,0)"
                                 fill="#ff0000"
                                 class="wordmark-text-0"
                                 data-fill-palette-color="primary"
                                 id="text-0" />
                            </svg>
                          </g>
                        </svg>
                      </g>
                      <g
                         transform="matrix(1,0,0,1,0,90.83385139275497)"
                         id="g5">
                        <svg
                           viewBox="0 0 232.20979200000002 29.52736187667854"
                           height="29.52736187667854"
                           width="232.20979200000002"
                           version="1.1"
                           id="svg4">
                          <g
                             transform="matrix(1,0,0,1,0,0)"
                             id="g4">
                            <svg
                               width="232.20979200000002"
                               viewBox="3.5 -35 364.86 46.4"
                               height="29.52736187667854"
                               data-palette-color="#ff0000"
                               version="1.1"
                               id="svg3">
                              <path
                                 d="M15.65-26.3L19.75-10.85 20.05-10.85 24.15-26.3Q25.45-31.3 28.15-33.15 30.85-35 36.3-35L36.3-35 36.3 0 31.6 0 31.6-29.7Q30.3-29.15 29.63-28.15 28.95-27.15 28.35-25.15L28.35-25.15 22.1-3.7 17.7-3.7 11.4-25.15Q10.8-27.2 10.15-28.18 9.5-29.15 8.2-29.7L8.2-29.7 8.2 0 3.5 0 3.5-35Q8.95-35 11.63-33.13 14.3-31.25 15.65-26.3L15.65-26.3ZM56.15-14.1L56.15-14.1 56.15-9.6Q54.25-11.05 51.5-11.05L51.5-11.05Q49.15-11.05 47.85-10.13 46.55-9.2 46.55-7.5L46.55-7.5Q46.55-4.2 51.45-4.2L51.45-4.2 58.05-4.2 58.05-13.75Q58.05-19.8 52.15-19.8L52.15-19.8 44.15-19.8 44.15-24 52.4-24Q57.25-24 59.85-21.6 62.45-19.2 62.45-14.7L62.45-14.7 62.45 0 51.3 0Q47.05 0 44.55-1.9 42.05-3.8 42.05-7.45 42.05-11.1 44.7-13 47.35-14.9 51.35-14.9L51.35-14.9Q53.6-14.9 56.15-14.1ZM67.95-9.5L67.95-9.5 67.95-35 72.45-35 72.45-9.5Q72.45-7.7 72.87-6.58 73.3-5.45 74.2-4.98 75.1-4.5 75.95-4.35 76.8-4.2 78.2-4.2L78.2-4.2 78.2 0Q72.6 0 70.27-2.15 67.95-4.3 67.95-9.5ZM102.49 0.5L102.49 0.5Q98.79-2.35 97.54-5.25 96.29-8.15 95.69-13.8L95.69-13.8 95.19-13.8Q94.59-8.15 93.34-5.25 92.09-2.35 88.39 0.5L88.39 0.5Q84.94-1.2 82.92-5.65 80.89-10.1 80.54-16.65L80.54-16.65 80.19-24 84.64-24 85.04-16.85Q85.49-8.65 88.29-4.95L88.29-4.95Q89.04-5.8 89.69-6.85 90.34-7.9 90.79-9.18 91.24-10.45 91.57-11.43 91.89-12.4 92.17-13.93 92.44-15.45 92.54-16.15 92.64-16.85 92.82-18.4 92.99-19.95 93.04-20.15L93.04-20.15 97.84-20.15Q97.89-19.95 98.07-18.4 98.24-16.85 98.34-16.15 98.44-15.45 98.72-13.93 98.99-12.4 99.32-11.43 99.64-10.45 100.09-9.18 100.54-7.9 101.19-6.85 101.84-5.8 102.59-4.95L102.59-4.95Q105.39-8.65 105.84-16.85L105.84-16.85 106.24-24 110.69-24 110.34-16.65Q109.99-10.1 107.97-5.65 105.94-1.2 102.49 0.5ZM128.79-14.1L128.79-14.1 128.79-9.6Q126.89-11.05 124.14-11.05L124.14-11.05Q121.79-11.05 120.49-10.13 119.19-9.2 119.19-7.5L119.19-7.5Q119.19-4.2 124.09-4.2L124.09-4.2 130.69-4.2 130.69-13.75Q130.69-19.8 124.79-19.8L124.79-19.8 116.79-19.8 116.79-24 125.04-24Q129.89-24 132.49-21.6 135.09-19.2 135.09-14.7L135.09-14.7 135.09 0 123.94 0Q119.69 0 117.19-1.9 114.69-3.8 114.69-7.45 114.69-11.1 117.34-13 119.99-14.9 123.99-14.9L123.99-14.9Q126.24-14.9 128.79-14.1ZM144.24 0L139.84 0 139.84-13.65Q139.84-19.4 141.99-21.6L141.99-21.6Q143.04-22.7 144.54-23.25 146.04-23.8 147.16-23.9 148.29-24 150.24-24L150.24-24 154.64-24 154.64-19.8 149.34-19.8Q148.34-19.8 147.79-19.75 147.24-19.7 146.49-19.4 145.74-19.1 145.19-18.45L145.19-18.45Q144.24-17.25 144.24-13.65L144.24-13.65 144.24 0ZM169.64-24.5L169.64-24.5Q178.14-24.15 178.14-17.45L178.14-17.45Q178.14-9.1 167.19-9.1L167.19-9.1 165.14-9.1 165.14-12.95 167.54-12.95Q170.89-12.95 172.19-13.98 173.49-15 173.49-17.4L173.49-17.4Q173.49-18.95 172.34-19.73 171.19-20.5 169.39-20.5L169.39-20.5Q165.84-20.5 163.81-18 161.79-15.5 161.79-12L161.79-12Q161.79-8.3 163.96-6 166.14-3.7 169.64-3.7L169.64-3.7Q172.79-3.7 174.79-5.25L174.79-5.25 177.79-2.3Q174.34 0.5 169.64 0.5L169.64 0.5Q163.94 0.5 160.54-2.85 157.14-6.2 157.14-11.5L157.14-11.5Q157.14-17.4 160.49-21.05 163.84-24.7 169.64-24.5ZM199.23-12.8L199.23 0 194.78 0 194.78-22Q194.78-27.4 198.26-31.2 201.73-35 207.23-35L207.23-35 218.68-35 218.68 0 213.98 0 213.98-30.6 207.23-30.6Q203.58-30.6 201.41-28.45 199.23-26.3 199.23-21.6L199.23-21.6 199.23-17.35Q202.03-20.3 207.23-20.3L207.23-20.3 211.78-20.3 211.78-15.9 207.23-15.9Q204.33-15.9 202.51-15.2 200.68-14.5 199.23-12.8L199.23-12.8ZM225.43 0L225.43-24 234.08-24Q239.63-24 242.03-22.35L242.03-22.35Q244.18-20.9 244.75-18.88 245.33-16.85 245.33-13.55L245.33-13.55 245.33 0 240.93 0 240.93-13.5Q240.93-14.4 240.88-15.03 240.83-15.65 240.53-16.63 240.23-17.6 239.68-18.23 239.13-18.85 238.08-19.33 237.03-19.8 235.53-19.8L235.53-19.8 229.83-19.8 229.83 0 225.43 0ZM264.68-14.1L264.68-14.1 264.68-9.6Q262.78-11.05 260.03-11.05L260.03-11.05Q257.68-11.05 256.38-10.13 255.08-9.2 255.08-7.5L255.08-7.5Q255.08-4.2 259.98-4.2L259.98-4.2 266.58-4.2 266.58-13.75Q266.58-19.8 260.68-19.8L260.68-19.8 252.68-19.8 252.68-24 260.93-24Q265.78-24 268.38-21.6 270.98-19.2 270.98-14.7L270.98-14.7 270.98 0 259.83 0Q255.58 0 253.08-1.9 250.58-3.8 250.58-7.45 250.58-11.1 253.23-13 255.88-14.9 259.88-14.9L259.88-14.9Q262.13-14.9 264.68-14.1ZM276.47-9.5L276.47-9.5 276.47-35 280.97-35 280.97-9.5Q280.97-7.7 281.4-6.58 281.82-5.45 282.72-4.98 283.62-4.5 284.47-4.35 285.32-4.2 286.72-4.2L286.72-4.2 286.72 0Q281.12 0 278.8-2.15 276.47-4.3 276.47-9.5ZM289.22-11.65L289.22-24 293.62-24 293.62-11.45Q293.62-7.4 294.87-5.8 296.12-4.2 299.47-4.2L299.47-4.2 304.72-4.2 304.72-24 309.12-24 309.12-1.2Q309.12 5.05 305.85 8.22 302.57 11.4 295.57 11.4L295.57 11.4 291.97 11.4 291.97 7.2 295.12 7.2Q304.27 7.2 304.72 0L304.72 0 300.52 0Q293.97 0 291.6-2.3 289.22-4.6 289.22-11.65L289.22-11.65ZM322.67-24L331.52-24 331.52-19.8 322.67-19.8Q321.22-19.8 320.17-19.25 319.12-18.7 319.12-17.7L319.12-17.7Q319.12-17.1 319.37-16.63 319.62-16.15 319.94-15.85 320.27-15.55 320.94-15.23 321.62-14.9 321.99-14.78 322.37-14.65 325.17-13.75 327.97-12.85 329.32-12.25 330.67-11.65 331.39-10.63 332.12-9.6 332.32-8.63 332.52-7.65 332.52-6.7L332.52-6.7Q332.52 0 323.32 0L323.32 0 314.67 0 314.67-4.2 323.32-4.2Q328.02-4.2 328.02-6.7L328.02-6.7Q328.02-7.9 326.64-8.7 325.27-9.5 323.29-10.05 321.32-10.6 319.34-11.33 317.37-12.05 315.99-13.68 314.62-15.3 314.62-17.7L314.62-17.7Q314.62-20.75 316.97-22.38 319.32-24 322.67-24L322.67-24ZM344.01-24L344.01 0 339.62 0 339.62-19.8 335.51-19.8 337.51-24 344.01-24ZM339.41-29L339.41-29Q338.76-29.85 338.76-30.85 338.76-31.85 339.41-32.68 340.06-33.5 341.41-33.5 342.76-33.5 343.41-32.68 344.06-31.85 344.06-30.85 344.06-29.85 343.41-29.03 342.76-28.2 341.41-28.2 340.06-28.2 339.41-29ZM358.51-24L367.36-24 367.36-19.8 358.51-19.8Q357.06-19.8 356.01-19.25 354.96-18.7 354.96-17.7L354.96-17.7Q354.96-17.1 355.21-16.63 355.46-16.15 355.79-15.85 356.11-15.55 356.79-15.23 357.46-14.9 357.84-14.78 358.21-14.65 361.01-13.75 363.81-12.85 365.16-12.25 366.51-11.65 367.24-10.63 367.96-9.6 368.16-8.63 368.36-7.65 368.36-6.7L368.36-6.7Q368.36 0 359.16 0L359.16 0 350.51 0 350.51-4.2 359.16-4.2Q363.86-4.2 363.86-6.7L363.86-6.7Q363.86-7.9 362.49-8.7 361.11-9.5 359.14-10.05 357.16-10.6 355.19-11.33 353.21-12.05 351.84-13.68 350.46-15.3 350.46-17.7L350.46-17.7Q350.46-20.75 352.81-22.38 355.16-24 358.51-24L358.51-24Z"
                                 opacity="1"
                                 transform="matrix(1,0,0,1,0,0)"
                                 fill="#ff0000"
                                 class="slogan-text-1"
                                 data-fill-palette-color="secondary"
                                 id="text-1" />
                            </svg>
                          </g>
                        </svg>
                      </g>
                    </svg>
                  </g>
                </svg>
              </g>
              <g
                 transform="matrix(1,0,0,1,0,0.3009030331735687)"
                 id="g22">
                <svg
                   viewBox="0 0 120.36121326943352 120.36121326943352"
                   height="120.36121326943352"
                   width="120.36121326943352"
                   version="1.1"
                   id="svg21">
                  <g
                     id="g21">
                    <svg
                       version="1.1"
                       x="0"
                       y="0"
                       viewBox="5 5 90 90"
                       enable-background="new 0 0 100 100"
                       xml:space="preserve"
                       height="120.36121326943352"
                       width="120.36121326943352"
                       class="icon-icon-0"
                       data-fill-palette-color="accent"
                       id="icon-0"><path
                         d="M63.639 65C66.396 60.663 68 55.521 68 50s-1.604-10.663-4.361-15H63v30H63.639z"
                         fill="#ff0000"
                         data-fill-palette-color="accent"
                         id="path6" /><path
                         d="M36 35h-1v-1-8-1h1 16.605c-3.789-1.915-8.069-3-12.605-3-15.464 0-28 12.536-28 28 0 15.465 12.536 28 28 28 4.536 0 8.816-1.085 12.606-3H36h-1v-1-8-1h1 18V35H36zM51.031 50.5h-1.055c-0.116 2.381-1.06 4.539-2.556 6.197l0.738 0.737c0.195 0.195 0.195 0.512 0 0.707-0.098 0.098-0.226 0.146-0.354 0.146s-0.256-0.049-0.354-0.146l-0.737-0.736c-1.656 1.504-3.815 2.456-6.198 2.577v1.033c0 0.276-0.224 0.5-0.5 0.5s-0.5-0.224-0.5-0.5v-1.031c-2.388-0.115-4.552-1.062-6.213-2.564l-0.723 0.723c-0.098 0.098-0.226 0.146-0.354 0.146s-0.256-0.049-0.354-0.146c-0.195-0.195-0.195-0.512 0-0.707l0.723-0.723c-1.504-1.66-2.454-3.824-2.57-6.213H29c-0.276 0-0.5-0.224-0.5-0.5s0.224-0.5 0.5-0.5h1.026c0.12-2.386 1.072-4.547 2.578-6.205l-0.731-0.731c-0.195-0.195-0.195-0.512 0-0.707s0.512-0.195 0.707 0l0.733 0.733c1.66-1.498 3.82-2.442 6.204-2.557v-1.048c0-0.276 0.224-0.5 0.5-0.5s0.5 0.224 0.5 0.5v1.049c2.379 0.122 4.534 1.07 6.189 2.569l0.746-0.746c0.195-0.195 0.512-0.195 0.707 0s0.195 0.512 0 0.707l-0.747 0.747c1.498 1.656 2.444 3.811 2.564 6.189h1.056c0.276 0 0.5 0.224 0.5 0.5S51.308 50.5 51.031 50.5z"
                         fill="#ff0000"
                         data-fill-palette-color="accent"
                         id="path7" /><path
                         d="M64.227 35c2.706 4.359 4.273 9.5 4.273 15.008 0 5.501-1.562 10.636-4.263 14.992h1.745c2.551-4.412 4.019-9.529 4.019-14.992 0-5.47-1.471-10.593-4.028-15.008H64.227z"
                         fill="#ff0000"
                         data-fill-palette-color="accent"
                         id="path8" /><path
                         d="M10 50.008c0 16.569 13.432 30 30 30 6.137 0 11.841-1.847 16.594-5.009h-2.891c-4.066 2.234-8.736 3.508-13.704 3.508-15.74 0-28.5-12.759-28.5-28.5 0-15.74 12.76-28.5 28.5-28.5 4.957 0 9.616 1.267 13.676 3.492h2.893C51.821 21.848 46.126 20.008 40 20.008 23.432 20.008 10 33.439 10 50.008z"
                         fill="#ff0000"
                         data-fill-palette-color="accent"
                         id="path9" /><path
                         d="M75.001 50.008c0-5.372-1.214-10.459-3.376-15.008h-3.361c2.383 4.477 3.737 9.583 3.737 15.008 0 5.418-1.352 10.519-3.729 14.992h3.359C73.79 60.455 75.001 55.374 75.001 50.008z"
                         fill="#ff0000"
                         data-fill-palette-color="accent"
                         id="path10" /><path
                         d="M40 82.009c-17.673 0-32-14.327-32-32s14.327-32 32-32c7.549 0 14.482 2.62 19.955 6.992h4.522C58.166 18.822 49.531 15.008 40 15.008c-19.33 0-35 15.67-35 35 0 19.331 15.67 35 35 35 9.539 0 18.182-3.82 24.495-10.009h-4.52C54.5 79.382 47.559 82.009 40 82.009z"
                         fill="#ff0000"
                         data-fill-palette-color="accent"
                         id="path11" /><path
                         d="M46.976 49.5c-0.112-1.551-0.727-2.961-1.686-4.068L41.222 49.5H46.976z"
                         fill="#ff0000"
                         data-fill-palette-color="accent"
                         id="path12" /><path
                         d="M39.516 48.793v-5.761c-1.556 0.107-2.971 0.719-4.083 1.678L39.516 48.793z"
                         fill="#ff0000"
                         data-fill-palette-color="accent"
                         id="path13" /><path
                         d="M39.516 56.984v-5.778l-4.092 4.092C36.537 56.262 37.955 56.877 39.516 56.984z"
                         fill="#ff0000"
                         data-fill-palette-color="accent"
                         id="path14" /><path
                         d="M34.725 45.417c-0.967 1.109-1.587 2.525-1.7 4.083h5.783L34.725 45.417z"
                         fill="#ff0000"
                         data-fill-palette-color="accent"
                         id="path15" /><path
                         d="M33.025 50.5c0.109 1.562 0.726 2.979 1.692 4.092l4.091-4.092H33.025z"
                         fill="#ff0000"
                         data-fill-palette-color="accent"
                         id="path16" /><path
                         d="M40.516 56.982c1.556-0.113 2.969-0.733 4.077-1.698l-4.077-4.077V56.982z"
                         fill="#ff0000"
                         data-fill-palette-color="accent"
                         id="path17" /><path
                         d="M40.516 43.034v5.758l4.067-4.067C43.477 43.764 42.067 43.147 40.516 43.034z"
                         fill="#ff0000"
                         data-fill-palette-color="accent"
                         id="path18" /><path
                         d="M45.299 54.575c0.958-1.109 1.569-2.521 1.677-4.075h-5.753L45.299 54.575z"
                         fill="#ff0000"
                         data-fill-palette-color="accent"
                         id="path19" /><polygon
                         points="76,5 76,16 86,16 86,35 77,35 77,65 86,65 86,84 76,84 76,95 95,95 95,5 "
                         fill="#ff0000"
                         data-fill-palette-color="accent"
                         id="polygon19" /><path
                         d="M63 29v5h22V17h-9v8 1h-1H36v8h18v-5H63zM80.5 19c0.828 0 1.5 0.671 1.5 1.5S81.328 22 80.5 22 79 21.329 79 20.5 79.672 19 80.5 19zM80.5 24c0.828 0 1.5 0.671 1.5 1.5S81.328 27 80.5 27 79 26.329 79 25.5 79.672 24 80.5 24zM80.5 29c0.828 0 1.5 0.671 1.5 1.5S81.328 32 80.5 32 79 31.329 79 30.5 79.672 29 80.5 29z"
                         fill="#ff0000"
                         data-fill-palette-color="accent"
                         id="path20" /><path
                         d="M85 83V66H63v5h-9v-5H36v8h40v9H85zM80.5 68c0.828 0 1.5 0.672 1.5 1.5S81.328 71 80.5 71 79 70.328 79 69.5 79.672 68 80.5 68zM80.5 73c0.828 0 1.5 0.672 1.5 1.5S81.328 76 80.5 76 79 75.328 79 74.5 79.672 73 80.5 73zM80.5 78c0.828 0 1.5 0.672 1.5 1.5S81.328 81 80.5 81 79 80.328 79 79.5 79.672 78 80.5 78z"
                         fill="#ff0000"
                         data-fill-palette-color="accent"
                         id="path21" /><rect
                         x="55"
                         y="30"
                         width="7"
                         height="40"
                         fill="#ff0000"
                         data-fill-palette-color="accent"
                         id="rect21" /></svg>
                  </g>
                </svg>
              </g>
            </svg>
          </g>
          <defs
             id="defs23" />
        </svg>
        <rect
           width="395.52"
           height="85.86305897144625"
           fill="none"
           stroke="none"
           visibility="hidden"
           id="rect23" />
      </g>
    </svg>
  </g>
  <path
     style="fill:#ffffff;stroke-width:0.753769"
     d="M 114.29757,261.50835 C 99.129791,259.40798 84.099805,253.61185 70.854271,244.75498 62.967838,239.48157 49.367598,225.70838 44.276475,217.8392 36.384715,205.64116 32.122915,195.51645 29.279609,182.21131 27.088943,171.96017 26.895393,153.48467 28.87899,143.96985 33.184351,123.3181 42.251601,106.23179 56.510343,91.901374 75.947325,72.366696 100.10524,62.384127 127.72384,62.474429 c 11.66594,0.03814 20.56529,1.468615 31.14959,5.006953 14.90817,4.983814 15.55907,4.81643 -18.86087,4.850248 l -30.71608,0.03018 v 18.090452 18.090448 h 33.9196 33.9196 v 53.51759 53.51759 h -33.9196 -33.9196 v 18.45879 18.45878 l 30.3392,0.197 30.33919,0.19699 -7.24518,2.78989 c -10.45032,4.02409 -20.21862,5.88936 -32.70456,6.24501 -5.80402,0.16532 -12.88142,-0.0219 -15.72756,-0.416 z m 15.20407,-60.73808 c 0.21336,-2.19622 0.48818,-2.40912 3.73923,-2.89664 4.90575,-0.73566 10.7728,-3.05083 14.41201,-5.68707 3.52982,-2.55698 4.06627,-2.66765 5.3622,-1.10616 0.51609,0.62186 1.58586,1.13066 2.37725,1.13066 2.23601,0 2.54092,-2.11998 0.60179,-4.18409 l -1.73429,-1.84607 1.58253,-1.69598 c 2.95681,-3.16874 6.24929,-10.95597 7.31067,-17.29083 0.41243,-2.46154 0.74351,-2.80767 2.88394,-3.01507 4.16287,-0.40336 3.54013,-4.33823 -0.69137,-4.36848 -1.37961,-0.01 -1.78672,-0.7755 -2.80133,-5.26837 -1.25483,-5.55658 -3.31441,-10.18459 -6.24621,-14.03571 -1.77212,-2.32781 -1.77269,-2.3356 -0.26812,-3.69723 1.80512,-1.6336 1.91078,-2.87307 0.35499,-4.16425 -0.95531,-0.79285 -1.46169,-0.66646 -2.95659,0.73792 l -1.80383,1.69462 -3.41411,-2.34896 c -4.58915,-3.15742 -9.69595,-5.27167 -14.34384,-5.93847 -3.67827,-0.52769 -3.85744,-0.66278 -4.21832,-3.18064 -0.31558,-2.20184 -0.6834,-2.62955 -2.26131,-2.62955 -1.5779,0 -1.94572,0.42771 -2.2613,2.62955 -0.36468,2.5444 -0.51008,2.64866 -4.49045,3.21981 -4.62294,0.66335 -11.13763,3.4193 -14.94195,6.321 l -2.53621,1.93446 -1.80767,-1.69822 c -1.498172,-1.40746 -2.005035,-1.53442 -2.960419,-0.74152 -1.537211,1.27577 -1.453284,2.52778 0.274247,4.09118 1.391582,1.25936 1.364962,1.38359 -1.072508,5.00566 -2.812507,4.17937 -5.189395,10.07937 -5.983985,14.85366 -0.434577,2.61115 -0.834518,3.20565 -2.16289,3.21506 -4.195604,0.0297 -4.890489,3.96203 -0.771113,4.36369 2.132749,0.20795 2.399627,0.5265 2.841723,3.39196 0.811115,5.25727 2.642644,9.99042 5.690801,14.70651 l 2.894564,4.47845 -1.536529,1.53653 c -2.864147,2.86415 0.257159,5.45193 3.278239,2.7179 1.23284,-1.11572 1.66545,-0.9997 5.80924,1.55799 4.59619,2.83693 12.43022,5.67764 15.65764,5.67764 1.49292,0 1.81727,0.38118 1.81727,2.13567 0,2.5957 0.59141,3.27261 2.60717,2.98406 1.11419,-0.15949 1.60208,-0.87405 1.76884,-2.59067 z"
     id="path25" />
  <path
     style="fill:#ffffff;stroke-width:0.753769"
     d="M 181.65829,162.43719 V 91.20603 h 12.0603 12.0603 v 71.23116 71.23115 h -12.0603 -12.0603 z"
     id="path26" />
  <path
     style="fill:#ffffff;stroke-width:0.753769"
     d="m 139.66756,153.20352 6.61659,-6.59548 1.45926,1.88442 c 1.60391,2.07122 3.76413,7.77188 3.76413,9.93327 0,1.25373 -0.80329,1.37326 -9.22829,1.37326 h -9.22828 z"
     id="path27" />
  <path
     style="fill:#ffffff;stroke-width:0.753769"
     d="m 129.64824,147.53454 c 0,-9.44787 0.026,-9.59483 1.69598,-9.59425 1.83982,6.5e-4 10.66654,3.93536 11.36562,5.06648 0.23602,0.3819 -2.60628,3.71572 -6.31623,7.40849 l -6.74537,6.71411 z"
     id="path28" />
  <path
     style="fill:#ffffff;stroke-width:0.753769"
     d="m 118.05555,150.09339 -6.69319,-6.72659 2.92435,-1.92208 c 3.00283,-1.97367 9.70324,-4.13818 10.46182,-3.37961 0.23382,0.23383 0.32952,4.54932 0.21267,9.59 l -0.21246,9.16487 z"
     id="path29" />
  <path
     style="fill:#ffffff;stroke-width:0.753769"
     d="m 102.97152,157.72613 c 0.79618,-3.38416 3.39287,-9.11795 4.57275,-10.09716 0.90647,-0.7523 2.23679,0.22818 7.63814,5.62953 l 6.54049,6.54049 h -9.61953 -9.61953 z"
     id="path30" />
  <path
     style="fill:#ffffff;stroke-width:0.753769"
     d="m 106.45985,175.4397 c -1.59494,-2.69081 -2.82646,-5.85226 -3.52349,-9.04523 l -0.45252,-2.07286 h 9.98608 9.98609 l -6.75249,6.78392 c -3.71387,3.73115 -6.9863,6.78392 -7.27206,6.78392 -0.28576,0 -1.17298,-1.10239 -1.97161,-2.44975 z"
     id="path31" />
  <path
     style="fill:#ffffff;stroke-width:0.753769"
     d="m 120.0936,185.84963 c -2.57912,-0.80644 -8.53581,-3.91673 -8.53581,-4.45697 0,-0.0785 3.05276,-3.1813 6.78392,-6.89517 l 6.78392,-6.75249 v 9.59484 c 0,10.55664 0.23626,10.15708 -5.03203,8.50979 z"
     id="path32" />
  <path
     style="fill:#ffffff;stroke-width:0.753769"
     d="M 129.64824,177.33984 V 167.745 l 6.75178,6.7205 6.75178,6.7205 -2.72913,1.8545 c -2.38525,1.62081 -8.30509,3.89417 -10.14046,3.89417 -0.34868,0 -0.63397,-4.31767 -0.63397,-9.59483 z"
     id="path33" />
  <path
     style="fill:#ffffff;stroke-width:0.753769"
     d="m 139.07035,171.10553 -6.75249,-6.78392 h 9.59484 9.59484 v 2.14091 c 0,2.15445 -4.18915,11.42693 -5.16249,11.42693 -0.28722,0 -3.56083,-3.05277 -7.2747,-6.78392 z"
     id="path34" />
  <path
     style="fill:#ffffff;stroke-width:0.753769"
     d="m 210.30151,162.0603 c 0,-42.30935 0.19721,-53.57748 0.93339,-53.33208 0.51337,0.17112 2.37353,2.99775 4.1337,6.2814 14.03234,26.17782 15.73438,56.67702 4.71812,84.5448 -2.7881,7.05305 -7.43753,15.38195 -8.843,15.84122 -0.74783,0.24436 -0.94221,-10.75907 -0.94221,-53.33534 z"
     id="path35" />
  <path
     style="fill:#ffffff;stroke-width:0.753769"
     d="m 215.57789,215.10432 c 0,-0.26047 0.97934,-2.21084 2.17631,-4.33417 3.52292,-6.24937 7.56991,-17.22883 9.69561,-26.30408 1.73435,-7.40454 1.98473,-10.10816 2.00512,-21.652 0.017,-9.63416 -0.3326,-14.96753 -1.29664,-19.77966 -1.77329,-8.85171 -5.94283,-20.68323 -9.97928,-28.31731 l -3.31139,-6.2628 2.73393,0.23265 c 2.61586,0.2226 2.87186,0.50933 5.92804,6.63968 4.42471,8.87547 7.69461,19.09925 9.5213,29.76954 1.29115,7.54205 1.47803,10.99583 1.12181,20.73298 -0.59755,16.33367 -3.3181,27.72531 -10.12585,42.39949 -3.32141,7.15933 -3.47489,7.34925 -5.93924,7.34925 -1.39135,0 -2.52972,-0.21311 -2.52972,-0.47357 z"
     id="path36" />
  <path
     style="fill:#ffffff;stroke-width:0.753769"
     d="m 230.12756,214.6706 c 8.42637,-19.78501 11.02217,-29.76465 12.214,-46.95703 1.13881,-16.42776 -3.59654,-40.11177 -10.9209,-54.62126 l -2.32914,-4.61399 5.79491,0.22064 5.7949,0.22064 2.95222,7.38183 c 11.77255,29.43643 11.62875,62.67522 -0.40176,92.86942 l -2.40264,6.03016 -5.55887,0.22336 c -4.32663,0.17385 -5.46662,0.007 -5.14272,-0.75377 z"
     id="path37" />
  <path
     style="fill:#ffffff;stroke-width:0.753769"
     d="M 257.03518,264.19598 V 247.98995 H 185.05025 113.06533 V 234.04523 220.1005 h 32.03517 32.03518 v 9.04523 9.04522 h 16.58291 16.58292 v -9.04522 -9.04523 h 39.19598 39.19598 v 30.15076 30.15075 h -15.82915 -15.82914 z m 19.59799,7.91457 c 2.24446,-2.24446 2.01006,-6.27922 -0.47854,-8.23675 -2.63462,-2.07238 -5.20922,-1.97316 -7.4703,0.28792 -2.26108,2.26107 -2.3603,4.83568 -0.28791,7.4703 1.95753,2.48859 5.99228,2.723 8.23675,0.47853 z m 0,-18.09045 c 2.27701,-2.27702 2.01001,-6.27925 -0.55344,-8.29566 -5.39715,-4.2454 -12.37953,3.13994 -7.70865,8.15353 1.99631,2.1428 6.18929,2.21493 8.26209,0.14213 z m 0.18844,-18.2061 c 2.88986,-3.41523 0.68046,-8.96284 -3.61825,-9.08506 -3.14839,-0.0895 -5.50343,1.33126 -6.09169,3.67505 -1.53383,6.11128 5.70417,10.14402 9.70994,5.41001 z"
     id="path38" />
  <path
     style="fill:#ffffff;stroke-width:0.753769"
     d="M 118.71262,269.08656 C 71.217541,265.09134 32.587573,230.99138 22.231666,183.9196 c -0.723648,-3.28928 -1.416316,-10.90427 -1.656449,-18.21054 -0.499276,-15.1909 0.681062,-23.72725 5.141501,-37.18397 5.263218,-15.87863 12.62617,-27.97274 24.594053,-40.397286 15.586826,-16.181574 33.375194,-26.062765 55.832879,-31.014387 9.92724,-2.188825 31.27763,-2.365319 40.84127,-0.337616 9.98552,2.117148 21.37549,6.19516 30.44959,10.902031 l 8.3034,4.307093 -4.12562,0.220821 c -3.48112,0.186326 -5.12561,-0.241177 -10.52692,-2.736589 -14.63281,-6.76038 -27.10145,-9.457086 -43.69844,-9.451061 -26.08963,0.0095 -48.057628,8.146978 -67.596332,25.039415 -16.519468,14.282118 -28.281173,34.401319 -33.118245,56.651029 -1.964049,9.0343 -1.994845,31.60453 -0.05554,40.70352 9.048732,42.45556 41.563221,73.65495 84.564087,81.14377 5.12853,0.89315 9.81881,1.08377 19.22111,0.78115 16.53381,-0.53214 26.56477,-2.81475 40.63655,-9.24714 4.82127,-2.20386 6.53891,-2.62505 9.92121,-2.43285 l 4.09048,0.23246 -8.42308,4.33608 c -18.31205,9.42678 -38.26755,13.51371 -57.91455,11.86103 z"
     id="path39" />
  <path
     style="fill:#ffffff;stroke-width:0.753769"
     d="M 112.68844,286.71229 C 93.562817,283.84452 76.530279,277.92532 62.569462,269.29481 36.806141,253.36804 18.039436,229.88171 8.7163922,201.89827 0.97884223,178.67374 0.19338549,153.12783 6.4968284,129.71 15.689995,95.55658 39.628844,66.28117 71.231156,50.544785 86.603985,42.889879 99.926201,39.151343 117.45761,37.572522 c 32.28808,-2.907757 65.40256,7.95107 91.62082,30.044098 l 5.18396,4.368305 -7.17116,0.214704 -7.17115,0.214704 -7.43492,-5.052374 C 179.94721,58.84183 165.3428,52.624768 150,49.276141 c -5.12391,-1.118313 -9.6526,-1.399709 -22.61307,-1.40509 -14.22825,-0.0059 -17.16092,0.207072 -24.03052,1.745169 C 85.947633,53.514026 67.870586,62.008526 55.40201,72.150242 50.173215,76.40325 39.500469,87.473842 35.386287,92.912086 12.42259,123.26616 6.0407582,163.88034 18.567267,199.94885 c 13.425918,38.65825 45.305597,66.4965 86.206603,75.27809 11.33341,2.43333 33.79391,2.46385 44.84925,0.061 17.49192,-3.80189 31.95364,-10.14957 45.38238,-19.91963 3.89991,-2.83738 3.97186,-2.85571 11.21039,-2.85571 8.50167,0 8.5091,-0.21824 -0.23596,6.92761 -14.82784,12.11626 -32.87765,20.77668 -52.58797,25.23202 -6.99502,1.58116 -10.64861,1.91369 -23.36683,2.12669 -8.29146,0.13886 -16.09297,0.0999 -17.33669,-0.0866 z"
     id="path40" />
  <path
     style="fill:#ffffff;stroke-width:0.753769"
     d="M 113.06533,90.452261 V 76.130653 h 71.98492 71.98493 V 60.301508 44.472362 h 15.82914 15.82915 v 30.150754 30.150754 h -39.19598 -39.19598 v -9.045227 -9.045226 h -16.58292 -16.58291 v 9.045226 9.045227 H 145.1005 113.06533 Z m 163.33081,5.898759 c 2.22115,-2.08666 2.33658,-6.060514 0.23703,-8.160065 -2.24447,-2.244468 -6.27922,-2.010058 -8.23675,0.478537 -2.07239,2.634615 -1.97317,5.209224 0.28791,7.470298 2.30048,2.300473 5.39761,2.385305 7.71181,0.21123 z m 0.23703,-17.95906 c 2.24446,-2.244468 2.01006,-6.27922 -0.47854,-8.236749 -2.63462,-2.072389 -5.20922,-1.97316 -7.4703,0.287913 -2.26108,2.261075 -2.3603,4.835684 -0.28791,7.470299 1.95753,2.488594 5.99228,2.723004 8.23675,0.478537 z m 0,-18.090452 c 2.27701,-2.277018 2.01001,-6.279254 -0.55344,-8.295661 -5.39715,-4.245397 -12.37953,3.139939 -7.70865,8.153529 1.99631,2.142796 6.18929,2.214928 8.26209,0.142132 z"
     id="path41" />
  <path
     style="fill:#ffffff;stroke-width:0.753769"
     d="m 257.03518,304.14573 v -19.22111 h 17.71356 17.71357 V 250.25126 215.57789 H 276.25628 260.05025 V 162.0603 108.54271 h 16.20603 16.20603 V 74.246231 39.949749 H 274.74874 257.03518 V 20.728643 1.5075377 h 33.54271 33.54271 V 162.43719 323.36683 h -33.54271 -33.54271 z"
     id="path42" />
  <path
     style="fill:#ffffff;stroke-width:0.753769"
     d="m 376.24167,322.21393 c -4.97163,-4.18335 -4.66856,6.79669 -4.45245,-161.3122 l 0.1957,-152.2333883 1.69845,-3.1783148 c 3.77333,-7.061083 10.06652,-6.36840399 13.34096,1.4684117 1.03993,2.4889119 1.16662,19.3355404 1.16662,155.1263614 v 152.33423 l -1.58486,3.6841 c -2.59604,6.03467 -6.32183,7.51242 -10.36442,4.1108 z"
     id="path43" />
  <path
     style="fill:#ffffff;stroke-width:0.753769"
     d="M 501.25628,106.95346 V 17.927023 l -2.07286,0.4726 c -1.14008,0.25993 -5.46483,2.135288 -9.61056,4.167462 -19.85351,9.731897 -29.79763,27.326743 -29.84663,52.809799 -0.0127,6.591468 0.34411,9.822151 1.48912,13.484058 l 1.50579,4.815716 -4.71434,-0.440231 C 448.64845,92.36253 441.73275,88.254754 438.36777,81.571281 437.6827,80.210616 436.74437,76.47946 436.28259,73.279827 434.23664,59.10377 440.87275,44.403847 455.75271,30.150754 474.6016,12.095929 501.0457,1.5075377 527.28804,1.5075377 h 10.14915 l 0.0411,17.5251253 c 0.0641,27.317625 1.92353,142.228467 2.3077,142.612637 0.18899,0.18899 5.19772,-13.80175 11.1305,-31.09054 5.93279,-17.28879 18.26226,-53.227499 27.39883,-79.863805 L 594.92726,2.2613065 h 8.64716 c 6.59021,0 8.56913,0.2241306 8.31908,0.9422111 -0.18045,0.5182161 -16.41335,44.1027184 -36.07311,96.8544524 l -35.74501,95.91224 -19.40955,0.005 -19.40955,0.005 z"
     id="path44" />
  <path
     style="fill:#ffffff;stroke-width:0.753769"
     d="m 615.84742,196.32627 c -15.92037,-4.46022 -24.1503,-18.11373 -24.28931,-40.29612 -0.1858,-29.65168 13.308,-62.152763 32.37559,-77.97965 6.06371,-5.033128 14.61274,-9.605896 21.29243,-11.389055 6.74881,-1.801612 18.70958,-1.835628 23.88504,-0.06793 5.41225,1.848577 9.28079,6.157613 9.28079,10.337563 0,3.694163 1.13547,3.325246 1.85796,-0.603658 0.28674,-1.559228 0.86209,-4.44614 1.27857,-6.415361 l 0.75724,-3.580402 h 18.45566 c 17.22414,0 18.42943,0.08802 18.0624,1.319096 -0.21629,0.725502 -4.6487,21.444384 -9.84978,46.041957 -10.04374,47.49997 -10.68116,52.00318 -7.9865,56.4225 1.98111,3.24908 3.95991,4.15767 9.16165,4.20666 3.59035,0.0338 5.05624,-0.36312 7.95015,-2.15276 4.14267,-2.5619 9.09945,-9.36474 11.57256,-15.88255 1.31784,-3.47313 19.59436,-86.782947 19.59436,-89.31693 0,-0.350885 8.3103,-0.637973 18.46734,-0.637973 10.15703,0 18.46733,0.110155 18.46733,0.244789 0,0.134634 -3.87296,18.536016 -8.60657,40.891954 -4.73362,22.35595 -9.1677,43.36075 -9.85351,46.67733 -1.57501,7.6167 -1.03017,13.06129 1.6225,16.21381 1.69815,2.01814 2.34621,2.25353 6.20425,2.25353 7.0017,0 12.3027,-4.15467 16.83053,-13.19096 3.00823,-6.0036 3.41368,-7.64521 12.65949,-51.25628 l 8.7892,-41.457288 18.21224,-0.201844 c 15.05121,-0.16681 18.21223,-0.02189 18.21223,0.834953 0,0.570237 -3.87479,19.316845 -8.61064,41.659129 -11.20408,52.85737 -11.2066,52.87128 -10.31498,56.83959 1.09217,4.8609 2.92662,6.26555 8.65938,6.63059 2.6624,0.16953 6.05532,-0.0926 7.53981,-0.58255 4.30694,-1.42142 9.23014,-6.83334 12.55012,-13.79596 2.71838,-5.70094 4.10826,-11.59536 17.01573,-72.162803 7.73056,-36.275125 14.18228,-66.096309 14.33716,-66.269297 0.44145,-0.493048 36.75585,-5.295758 37.13974,-4.911864 0.18838,0.188372 -6.40546,31.969008 -14.65295,70.623637 -16.38161,76.777867 -17.02752,80.767927 -13.7008,84.635477 1.66167,1.9318 2.44523,2.20178 7.16416,2.46842 6.97684,0.39422 9.86832,-0.66852 15.16768,-5.5748 8.22268,-7.61275 8.85942,-9.46173 18.0968,-52.55042 l 8.11287,-37.843263 -4.3151,-0.222134 -4.3151,-0.222134 0.67217,-3.169826 c 1.48535,-7.00458 1.02472,-6.465974 5.74094,-6.71276 l 4.31728,-0.22591 3.78078,-17.465254 c 2.07943,-9.60589 3.95037,-17.633071 4.15766,-17.83818 0.54772,-0.541968 34.66745,-5.1403 36.15284,-4.872336 1.1102,0.200278 0.80731,2.303168 -2.65927,18.463094 -2.15169,10.03039 -4.12972,19.103883 -4.39562,20.163317 l -0.48345,1.926243 h 7.94329 c 7.85184,0 7.93874,0.01952 7.54884,1.69598 -0.217,0.932789 -0.662,3.052764 -0.9889,4.711055 l -0.5945,3.015076 -7.88753,0.212086 -7.88755,0.212086 -8.61097,40.4232 c -4.73604,22.23275 -8.75805,42.19666 -8.9378,44.36424 -0.43402,5.23372 0.90856,9.11764 3.64004,10.53014 3.12297,1.61495 10.9283,1.41566 14.88471,-0.38005 4.87554,-2.21286 10.32092,-8.28914 13.5572,-15.12798 l 2.8141,-5.94657 4.7111,-0.0205 c 2.5911,-0.0113 4.7111,0.30177 4.7111,0.69561 0,1.94467 -6.3749,15.03381 -10.1209,20.78081 -10.47634,16.07204 -24.26003,24.80051 -40.71435,25.78219 -14.83513,0.88508 -25.2667,-5.89914 -28.84157,-18.75726 l -1.21452,-4.36838 -5.92279,6.33041 c -6.84664,7.31786 -13.2358,11.63117 -21.51875,14.52729 -5.04162,1.76278 -7.07772,2.05349 -14.53148,2.07472 -7.99491,0.0228 -9.0023,-0.13929 -12.9668,-2.08612 -5.38207,-2.64296 -10.57437,-8.31341 -12.62083,-13.78306 -0.85143,-2.27565 -1.54805,-4.63361 -1.54805,-5.23992 0,-1.79924 -1.01538,-1.26134 -2.93232,1.55341 -2.65401,3.897 -10.87374,11.33948 -15.37554,13.9216 -7.24736,4.15692 -12.8751,5.62416 -21.64189,5.64236 -6.96998,0.0145 -8.40936,-0.21687 -12.0603,-1.93838 -6.84525,-3.22771 -11.99044,-9.82966 -13.19508,-16.93104 -1.02003,-6.01311 -1.01129,-6.01216 -4.86271,-0.52793 -8.93076,12.71695 -21.34335,19.79067 -34.72759,19.79067 -12.7947,0 -22.69259,-7.03558 -26.02512,-18.49907 l -1.15918,-3.98742 -7.69104,7.68404 c -5.91428,5.90889 -8.86926,8.24824 -12.79116,10.12626 -13.99676,6.70243 -29.43985,6.04871 -37.3491,-1.58101 -3.66005,-3.5307 -5.27991,-6.51015 -6.80552,-12.51761 l -1.36059,-5.35765 -2.30646,3.20945 c -5.89952,8.20917 -15.05222,15.5119 -23.47583,18.73082 -5.63047,2.15158 -16.88135,2.66248 -22.70471,1.03102 z m 33.37343,-24.94991 c 6.29207,-3.2257 11.91001,-10.20301 14.08865,-17.49765 1.90303,-6.37184 13.57586,-61.515064 13.5721,-64.115506 -0.004,-2.717049 -2.51725,-6.553941 -5.2028,-7.94269 -3.3112,-1.712293 -8.84877,-1.454854 -13.26171,0.61653 -11.70196,5.492757 -23.51119,28.081706 -27.80487,53.185736 -1.39773,8.17218 -1.5924,21.5896 -0.39429,27.17619 0.86101,4.01476 3.62174,8.00908 6.27838,9.08381 2.73921,1.10812 10.15056,0.81316 12.72454,-0.50642 z"
     id="path45" />
  <path
     style="fill:#ffffff;stroke-width:0.753769"
     d="m 1008.5427,195.3102 c 0,-0.36833 7.6319,-36.73024 16.9598,-80.80424 9.3279,-44.073998 16.9598,-80.4058 16.9598,-80.737337 0,-0.331537 -5.4271,-0.602794 -12.0603,-0.602794 -8.1735,0 -12.0603,-0.263786 -12.0603,-0.818491 0,-0.450171 0.567,-2.946329 1.26,-5.54702 l 1.26,-4.728527 7.5968,-0.444741 c 15.9021,-0.930963 28.9412,-4.712124 46.2979,-13.4258375 9.5568,-4.7978848 11.4962,-5.5415824 11.1668,-4.2822152 -0.2192,0.8382281 -9.494,44.3928787 -20.6106,96.7881127 l -20.2121,95.26406 -18.2789,0.004 c -10.1569,0.002 -18.2789,-0.29321 -18.2789,-0.66534 z"
     id="path46" />
  <path
     style="fill:#ffffff;stroke-width:0.753769"
     d="m 1127.994,196.70209 c -21.8399,-2.85602 -36.1921,-14.4393 -39.9687,-32.25756 -2.1611,-10.19647 -0.8735,-23.44197 3.0603,-31.48249 3.7445,-7.65344 11.6439,-14.16814 19.0898,-15.74352 4.3503,-0.92044 13.6026,-0.53584 17.3926,0.72299 4.0152,1.33364 8.62,5.43236 9.7523,8.68049 0.7272,2.0858 0.7168,2.09378 -4.2882,3.31772 -12.0995,2.95886 -17.677,11.64985 -17.7109,27.59797 -0.036,17.05967 6.6985,24.0682 22.2747,23.18009 5.7707,-0.32903 7.4999,-0.77004 12.2772,-3.13114 15.848,-7.83248 24.8307,-29.08671 21.1742,-50.10052 -2.978,-17.11436 -12.5345,-30.311673 -26.9722,-37.248019 -2.775,-1.333222 -5.0646,-2.624737 -5.088,-2.870043 -0.023,-0.245307 1.3992,-0.877108 3.1611,-1.403993 13.2482,-3.961703 28.0635,-16.769323 34.8188,-30.100231 2.4569,-4.848453 4.9425,-14.22052 4.9425,-18.635749 0,-9.274749 -3.8221,-16.608741 -10.4503,-20.052149 -3.33,-1.729957 -5.0019,-2.100559 -9.4763,-2.100559 -9.6916,0 -16.11,3.699791 -19.523,11.25387 -1.9933,4.411669 -2.1131,13.118645 -0.2557,18.585563 1.2084,3.557036 5.0965,8.602778 6.629,8.602778 1.5956,0 0.4028,1.615006 -2.8413,3.847051 -3.8609,2.656369 -11.1302,5.200518 -14.8405,5.193971 -12.1909,-0.02151 -20.5927,-12.924635 -17.912,-27.508359 2.6682,-14.515623 15.6221,-26.3522327 34.3737,-31.4087712 8.1168,-2.188782 27.3948,-2.3963237 35.4271,-0.381399 20.4932,5.1407506 32.2083,19.5387772 31.0795,38.1972052 -1.0669,17.636645 -11.5432,31.68059 -33.5925,45.032262 -1.7037,1.03163 -1.5164,1.184427 5.9298,4.837394 13.2429,6.496764 21.6317,16.877968 24.1427,29.876928 2.0244,10.47969 -0.2716,25.62511 -5.4288,35.81049 -4.9326,9.74192 -15.706,21.77229 -25.0007,27.91788 -14.7082,9.72487 -34.1966,14.12105 -52.1762,11.76985 z"
     id="path47" />
  <path
     style="fill:#ffffff;stroke-width:0.753769"
     d="m 1265.9337,196.70209 c -13.0071,-1.70095 -23.4393,-6.47823 -30.4033,-13.92276 -7.3806,-7.88988 -10.6299,-16.87273 -10.6299,-29.38737 0,-15.85444 6.1115,-28.28333 16.4664,-33.48784 5.367,-2.6975 7.9172,-3.23686 15.0619,-3.18552 6.8598,0.0493 11.6437,1.57666 14.9375,4.7692 2.3553,2.28281 4.5688,6.34591 3.8493,7.06549 -0.2004,0.20033 -2.366,0.87627 -4.8126,1.50208 -10.4747,2.67938 -15.9261,10.16615 -17.2667,23.71347 -0.5482,5.53957 0.608,14.09998 2.3797,17.61977 3.6001,7.15224 9.5217,9.92773 19.9165,9.33505 8.6572,-0.49362 14.8141,-3.25827 20.9523,-9.40829 7.4469,-7.46134 11.5102,-16.24133 12.9334,-27.94682 1.769,-14.54918 -2.2398,-29.22401 -10.9969,-40.25544 -3.9977,-5.035934 -11.8782,-11.167052 -17.4667,-13.589364 -2.1695,-0.940319 -3.9502,-1.910382 -3.9573,-2.155688 -0.01,-0.245307 1.4287,-0.877108 3.1906,-1.403993 11.7613,-3.517078 26.1791,-15.351619 33.1858,-27.239807 9.8628,-16.7341 8.1302,-35.31158 -3.8748,-41.548322 -3.3379,-1.734059 -4.9982,-2.100559 -9.5158,-2.100559 -12.3879,0 -19.8323,6.367578 -21.1816,18.117819 -0.8521,7.419797 2.5934,17.291867 6.8255,19.556834 1.0506,0.562266 1.9102,1.287885 1.9102,1.612487 0,1.214276 -7.1714,5.463898 -11.4874,6.807178 -8.4524,2.630687 -13.5338,1.521393 -19.0825,-4.165824 -5.9235,-6.071243 -7.7361,-14.487769 -5.2093,-24.188573 1.7235,-6.61723 4.5877,-11.25647 10.2434,-16.591718 5.8861,-5.552698 14.4208,-10.0929776 23.6514,-12.5821002 8.1168,-2.188782 27.3948,-2.3963237 35.4271,-0.381399 20.4932,5.1407506 32.2083,19.5387772 31.0795,38.1972052 -0.6914,11.430413 -5.3575,21.134523 -14.8735,30.932963 -5.1709,5.324449 -15.2882,12.787658 -18.881,13.92796 -0.8089,0.256741 -1.4579,0.698336 -1.4422,0.981331 0.016,0.282988 3.4418,2.148204 7.6136,4.144907 16.3442,7.822568 24.7787,21.209123 24.7646,39.304373 -0.01,12.03999 -3.4351,22.69211 -10.9185,33.94967 -15.3605,23.10747 -43.9071,35.72816 -72.3887,32.0036 z"
     id="path48" />
  <path
     style="fill:#ffffff;stroke-width:0.753769"
     d="m 1389.7496,195.20907 c -12.9291,-3.27068 -18.5773,-14.26638 -17.6086,-34.27942 1.5331,-31.67297 19.0231,-61.927411 71.2377,-123.227784 8.6152,-10.114393 10.3618,-12.547149 9.3962,-13.087547 -2.1001,-1.175265 -28.966,-1.555749 -36.6068,-0.518438 -13.9568,1.894758 -27.4371,7.192643 -34.8061,13.679074 -1.85,1.628451 -3.5537,2.653383 -3.7859,2.277627 -0.2322,-0.375756 -0.8274,-3.89126 -1.3226,-7.812233 -0.784,-6.206669 -0.735,-7.799332 0.378,-12.309751 2.3224,-9.411035 7.4335,-14.1573829 18.2146,-16.9147245 5.5915,-1.4300555 8.3565,-1.5083358 53.2777,-1.5083358 h 47.3802 l -6.6811,9.9874373 c -15.3822,22.994298 -50.7074,79.041452 -61.1498,97.020545 -7.7923,13.41643 -11.0783,20.21624 -13.9816,28.93323 -3.366,10.10623 -4.3427,16.21252 -4.0219,25.14404 0.3238,9.01174 2.3057,13.88182 8.0923,19.88539 2.1154,2.19464 3.8461,4.23873 3.8461,4.54242 0,1.6923 -4.3622,5.30729 -8.1343,6.74095 -4.8793,1.85451 -18.7659,2.70179 -23.7241,1.44752 z"
     id="path49" />
  <path
     style="fill:#ffffff;stroke-width:0.753769"
     d="m 1028.1407,300.85382 v -2.91503 l 9.7918,-0.35358 c 10.5139,-0.37965 12.8349,-1.22663 12.8097,-4.6744 -0.022,-3.05338 -1.991,-4.35341 -10.8872,-7.18946 -6.4606,-2.05959 -8.8857,-3.73211 -10.5759,-7.29388 -1.5664,-3.30101 -1.1712,-7.9542 0.8706,-10.25072 2.9526,-3.32091 6.797,-4.32344 16.6468,-4.3411 l 9.2337,-0.0165 v 3.01507 3.01508 h -7.8021 c -8.67,0 -12.2469,0.87349 -12.9753,3.16866 -0.9489,2.98961 1.7866,5.10452 10.6047,8.19874 8.9702,3.1476 11.1872,4.90081 11.9218,9.42758 0.9428,5.8096 -2.3859,10.83923 -8.1309,12.28584 -1.8321,0.46133 -7.4208,0.83877 -12.4194,0.83877 h -9.0883 z"
     id="path50" />
  <path
     style="fill:#ffffff;stroke-width:0.753769"
     d="m 1009.2965,286.80905 v -16.9598 h -3.0151 c -1.6583,0 -3.0151,-0.15809 -3.0151,-0.35132 0,-0.19322 0.5716,-1.55 1.2703,-3.01507 l 1.2703,-2.66376 h 5.1367 5.1368 v 19.97487 19.97487 h -3.392 -3.3919 z"
     id="path51" />
  <path
     style="fill:#ffffff;stroke-width:0.753769"
     d="m 1009.4812,254.6571 c -1.3098,-1.30986 -1.1714,-4.81899 0.246,-6.23643 3.1317,-3.13167 8.1008,0.85534 6.0988,4.8934 -1.0327,2.08288 -4.8062,2.88163 -6.3448,1.34303 z"
     id="path52" />
  <path
     style="fill:#ffffff;stroke-width:0.753769"
     d="m 967.08543,300.84476 v -2.92408 l 9.31356,-0.31006 c 10.35141,-0.34461 13.2995,-1.39402 13.2995,-4.73409 0,-2.5449 -3.01802,-4.65196 -9.33195,-6.5152 -2.9516,-0.87101 -6.50387,-2.27824 -7.89394,-3.12719 -5.54872,-3.38871 -7.13067,-10.44342 -3.3495,-14.93709 3.16911,-3.76628 5.77642,-4.47795 16.40545,-4.47795 h 9.44632 v 3.01507 3.01508 h -7.8655 c -10.0675,0 -13.19649,1.10738 -13.22848,4.68169 -0.019,2.12274 2.63402,3.94832 8.44219,5.8092 12.0527,3.86158 14.15933,5.7829 14.15933,12.91389 0,3.3856 -0.31758,4.19923 -2.48512,6.36677 -3.33989,3.33989 -6.74843,4.13886 -17.67819,4.14384 l -9.23367,0.004 z"
     id="path53" />
  <path
     style="fill:#ffffff;stroke-width:0.753769"
     d="m 928.64322,320.07943 v -3.49652 h 5.49355 c 4.19979,0 6.28417,-0.39941 8.8507,-1.69598 3.79072,-1.91501 6.76127,-5.81266 6.76127,-8.87143 v -2.05301 l -8.16966,-0.3366 c -10.3594,-0.42683 -13.25606,-1.70893 -15.9302,-7.05089 -1.74841,-3.49271 -1.88214,-4.62081 -2.1622,-18.23944 l -0.29853,-14.51646 h 3.4813 3.4813 l 0.0607,11.87185 c 0.0988,19.33888 1.10291,21.07658 12.60935,21.82205 l 6.92798,0.44884 V 280.89047 263.8191 h 3.39196 3.39196 v 21.96028 c 0,14.65167 -0.29502,22.94497 -0.88644,24.91898 -1.30549,4.35734 -5.9713,9.27124 -10.23406,10.77825 -1.9679,0.69571 -6.54595,1.45266 -10.17347,1.68212 l -6.59547,0.41721 z"
     id="path54" />
  <path
     style="fill:#ffffff;stroke-width:0.753769"
     d="m 910.31443,302.67677 c -3.65542,-1.30368 -5.68504,-3.11901 -7.20647,-6.44561 -1.00793,-2.20385 -1.24813,-6.64041 -1.45893,-26.94724 l -0.25234,-24.30905 h 3.82427 3.82427 v 24.15487 24.15486 l 1.85016,1.85017 c 1.01758,1.01758 2.68582,1.85015 3.70719,1.85015 3.42838,0 4.24164,0.73808 4.24164,3.84949 0,2.89427 -0.0387,2.93398 -2.82663,2.90135 -1.55465,-0.0182 -4.12107,-0.49474 -5.70316,-1.05899 z"
     id="path55" />
  <path
     style="fill:#ffffff;stroke-width:0.753769"
     d="m 865.84206,302.67677 c -5.81529,-2.07399 -8.39503,-6.08125 -7.88377,-12.24636 0.57967,-6.99003 5.96734,-10.98693 14.90603,-11.05821 2.28015,-0.0182 5.07852,0.21255 6.21859,0.51274 1.86722,0.49164 2.07287,0.87706 2.07287,3.88493 v 3.33914 l -2.80512,-1.17206 c -4.18685,-1.74938 -9.81293,-1.01508 -12.03746,1.57109 -3.30806,3.84586 -1.49627,8.2428 3.91293,9.4961 1.65829,0.38423 5.64384,0.70668 8.85678,0.71657 l 5.84171,0.018 -10e-4,-9.98743 c -0.002,-15.72921 -1.89732,-17.89876 -15.63953,-17.90084 l -7.72613,-10e-4 v -3.07348 -3.07348 l 9.98744,0.24685 c 11.62933,0.28742 14.5729,1.30533 17.78083,6.14875 1.98188,2.99228 2.00848,3.20933 2.2496,18.34953 l 0.244,15.32142 -11.55053,-0.0331 c -7.75382,-0.0222 -12.49607,-0.3703 -14.42707,-1.05899 z"
     id="path56" />
  <path
     style="fill:#ffffff;stroke-width:0.753769"
     d="m 814.82412,283.72775 v -20.0411 l 11.87186,0.25466 c 10.22731,0.21939 12.2264,0.4635 14.43126,1.76221 5.94164,3.49974 6.82051,6.66946 6.84473,24.68593 l 0.018,13.37939 h -3.39196 -3.39196 v -13.26548 c 0,-18.78829 -0.72465,-19.96565 -12.62563,-20.51316 l -6.97236,-0.32077 v 17.04971 17.0497 h -3.39196 -3.39196 z"
     id="path57" />
  <path
     style="fill:#ffffff;stroke-width:0.753769"
     d="m 762.19222,282.47487 c 0.24983,-19.62735 0.39344,-21.55944 1.83477,-24.68593 2.13656,-4.63454 5.0704,-7.93333 9.23085,-10.3791 3.38924,-1.99241 3.91586,-2.06608 16.50347,-2.30879 l 13.00251,-0.25071 v 29.45925 29.45925 h -3.76885 -3.76884 v -26.06815 -26.06815 l -8.9929,0.25157 c -7.66492,0.21442 -9.29984,0.48106 -11.07151,1.80568 -4.4875,3.35515 -5.16627,5.07075 -5.44507,13.76249 l -0.25822,8.05023 1.86395,-1.74259 c 2.56132,-2.39454 8.07605,-3.91067 14.22455,-3.91067 h 5.15659 v 3.39196 3.39196 l -5.46483,0.004 c -6.22081,0.005 -10.56336,1.01226 -13.56784,3.14774 l -2.07286,1.47332 v 11.25521 11.2552 h -3.83841 -3.8384 z"
     id="path58" />
  <path
     style="fill:#ffffff;stroke-width:0.753769"
     d="m 712.30668,303.81834 c -14.20805,-4.3219 -18.92789,-22.93424 -8.74841,-34.49874 4.13818,-4.70122 7.75004,-6.22116 14.78344,-6.22116 7.69518,0 11.58113,1.76312 13.57674,6.16002 1.83412,4.04109 1.8524,6.89977 0.0692,10.82591 -2.44133,5.37529 -5.91492,7.18691 -15.71885,8.19807 l -4.71105,0.48589 v -3.05251 -3.0525 l 3.20352,-0.004 c 7.49693,-0.01 11.11809,-2.47119 11.11809,-7.55713 0,-4.57583 -1.36431,-5.62962 -7.28849,-5.62962 -6.24877,0 -9.07936,1.66842 -11.57424,6.82215 -1.33821,2.76437 -1.59979,4.40424 -1.3651,8.55781 0.32787,5.80241 2.50756,9.57354 6.88739,11.91602 3.16051,1.69034 10.98079,1.70206 13.54747,0.0203 1.78048,-1.16662 1.9458,-1.13009 3.84183,0.84894 1.08971,1.13741 1.98129,2.31946 1.98129,2.62677 0,0.30732 -1.78078,1.38783 -3.95729,2.40114 -4.08561,1.90213 -11.40846,2.44171 -15.64558,1.15284 z"
     id="path59" />
  <path
     style="fill:#ffffff;stroke-width:0.753769"
     d="m 668.72585,288.50503 c 0.2192,-13.71241 0.40316,-15.56724 1.80992,-18.249 2.51713,-4.7985 6.4656,-6.43693 15.51243,-6.43693 h 7.41914 v 3.01507 3.01508 h -5.67748 c -7.17,0 -10.41548,1.27885 -11.5572,4.55401 -0.51488,1.47697 -0.85578,7.81481 -0.85578,15.91022 v 13.45536 h -3.44751 -3.44752 z"
     id="path60" />
  <path
     style="fill:#ffffff;stroke-width:0.753769"
     d="m 634.15053,302.93655 c -7.66252,-2.21647 -11.01407,-12.17516 -6.17002,-18.33337 3.37345,-4.28865 12.45328,-6.56663 18.9416,-4.75214 1.86212,0.52076 2.07286,0.91918 2.07286,3.91883 v 3.33914 l -2.61398,-1.0922 c -7.15549,-2.98975 -15.1328,0.95189 -13.67574,6.75727 0.82919,3.30377 3.4443,4.33317 12.1349,4.77671 l 7.92367,0.40441 v -10.35866 c 0,-16.01049 -1.55058,-17.74729 -15.8444,-17.74729 h -7.52244 v -3.08736 -3.08736 l 10.42122,0.26072 c 9.95596,0.24909 10.56434,0.3555 13.62701,2.38345 5.435,3.59878 6.06662,5.97958 6.08597,22.94009 l 0.0166,14.51005 -11.49498,-0.068 c -6.32223,-0.0374 -12.57824,-0.38133 -13.90223,-0.76431 z"
     id="path61" />
  <path
     style="fill:#ffffff;stroke-width:0.753769"
     d="m 577.18432,302.31321 c -2.89659,-2.54325 -6.13334,-8.14612 -7.7331,-13.38613 -1.02507,-3.35765 -2.59568,-16.98945 -2.6106,-22.65824 -0.006,-2.39001 0.0736,-2.44974 3.27813,-2.44974 h 3.28458 l 0.48427,4.63318 c 0.26634,2.54825 0.49015,6.02501 0.49735,7.72613 0.019,4.48287 1.95349,12.9378 3.8625,16.8813 l 1.65059,3.40967 1.69151,-1.9665 c 2.39438,-2.78363 4.81602,-9.64039 6.04492,-17.11595 0.57929,-3.52386 1.05455,-6.66143 1.05613,-6.97236 0.002,-0.31093 1.67806,-0.56532 3.72553,-0.56532 h 3.72265 l 0.46143,3.5804 c 1.31256,10.18462 4.42386,19.45699 7.34108,21.87807 2.45231,2.03524 5.51985,-7.52726 6.59507,-20.55898 0.41047,-4.97487 0.75168,-9.46922 0.75824,-9.98743 0.008,-0.61573 1.21546,-0.94221 3.4852,-0.94221 h 3.47327 l -0.50673,7.72613 c -0.64007,9.7592 -1.62905,15.56778 -3.50364,20.57807 -1.74369,4.66042 -5.14594,9.5756 -7.85836,11.35285 -1.8951,1.24171 -1.99473,1.21374 -4.60173,-1.29192 -4.09909,-3.93976 -6.09881,-7.9836 -7.50998,-15.18674 -0.71068,-3.62752 -1.53876,-6.59548 -1.8402,-6.59548 -0.65125,0 -1.4529,2.73626 -1.46736,5.00854 -0.027,4.23411 -3.1284,11.52592 -6.49496,15.27035 -1.89972,2.11294 -3.74999,3.84171 -4.11172,3.84171 -0.36173,0 -1.79006,-0.99423 -3.17407,-2.2094 z"
     id="path62" />
  <path
     style="fill:#ffffff;stroke-width:0.753769"
     d="m 554.53553,302.67677 c -3.40629,-1.21483 -5.49092,-2.97432 -7.18808,-6.06695 -1.06703,-1.94439 -1.27504,-5.73948 -1.47706,-26.94902 l -0.23513,-24.68593 h 3.43865 3.43865 l 0.0328,21.29397 c 0.0431,27.9408 0.409,29.66308 6.51147,30.64698 2.75983,0.44497 2.88732,0.59496 3.1096,3.65851 0.22966,3.16528 0.20896,3.19421 -2.26131,3.16143 -1.3712,-0.0182 -3.78753,-0.49474 -5.36962,-1.05899 z"
     id="path63" />
  <path
     style="fill:#ffffff;stroke-width:0.753769"
     d="m 509.92462,302.63657 c -1.65829,-0.58635 -4.11746,-2.26246 -5.46482,-3.72469 -2.17415,-2.35949 -2.44943,-3.14743 -2.44693,-7.00383 0.004,-5.60077 1.73987,-8.4943 6.4713,-10.78475 3.73898,-1.81001 10.55878,-2.38334 14.81985,-1.2459 1.86609,0.49813 2.07286,0.88643 2.07286,3.89247 v 3.33914 l -2.61398,-1.0922 c -6.73087,-2.81233 -13.96893,-0.10518 -13.96893,5.22462 0,4.96824 3.2159,6.40097 14.51005,6.46444 l 5.84171,0.0328 -0.0426,-9.61055 c -0.0718,-16.22859 -1.34381,-17.76038 -15.0879,-18.16984 l -8.99015,-0.26784 v -2.93568 -2.93568 l 9.61055,0.0165 c 10.85823,0.0187 14.19705,0.9942 17.71578,5.17598 3.03956,3.6123 3.5694,6.78154 3.57398,21.37782 l 0.004,13.37939 -11.49498,-0.0331 c -7.90875,-0.0228 -12.43562,-0.36569 -14.51005,-1.09919 z"
     id="path64" />
  <path
     style="fill:#ffffff;stroke-width:0.753769"
     d="m 435.67839,274.26448 v -29.50436 l 4.64736,0.48574 c 6.25006,0.65326 10.33036,3.12227 12.85002,7.7756 1.08309,2.00026 3.21339,8.38558 4.73401,14.1896 4.14056,15.80402 4.95236,18.46733 5.62897,18.46733 0.33974,0 1.3527,-2.79836 2.25102,-6.21859 4.55514,-17.34309 7.05755,-25.32463 8.73934,-27.87456 2.35342,-3.56823 6.93267,-5.91338 12.53944,-6.42179 l 4.38874,-0.39796 v 29.50168 29.50167 h -3.76885 -3.76884 v -25.25125 c 0,-13.88819 -0.26372,-25.25126 -0.58605,-25.25126 -0.32233,0 -1.33228,0.52268 -2.24433,1.16151 -1.78737,1.25191 -3.80188,7.11 -10.4205,30.30215 l -3.70892,12.99633 -3.45898,0.006 -3.45897,0.006 -3.97919,-13.75628 c -6.34783,-21.94482 -8.28902,-27.60972 -10.01067,-29.21368 -0.88695,-0.82632 -1.88787,-1.5024 -2.22427,-1.5024 -0.3364,0 -0.61164,11.36307 -0.61164,25.25126 v 25.25125 h -3.76884 -3.76885 z"
     id="path65" />
</svg>
